<svg width="130" height="63" viewBox="0 0 130 63" fill="none" xmlns="http://www.w3.org/2000/svg">
<path d="M17.0442 57V48.97H19.1232C19.6439 48.97 20.0912 49.069 20.4652 49.267C20.8466 49.465 21.1399 49.7437 21.3452 50.103C21.5579 50.4623 21.6642 50.8877 21.6642 51.379V54.58C21.6642 55.0713 21.5579 55.5003 21.3452 55.867C21.1399 56.2263 20.8466 56.505 20.4652 56.703C20.0912 56.901 19.6439 57 19.1232 57H17.0442ZM18.0342 56.12H19.1232C19.6072 56.12 19.9849 55.9843 20.2562 55.713C20.5349 55.4417 20.6742 55.064 20.6742 54.58V51.379C20.6742 50.9023 20.5349 50.5283 20.2562 50.257C19.9849 49.9857 19.6072 49.85 19.1232 49.85H18.0342V56.12ZM25.9279 57.11C25.4513 57.11 25.0333 57.0147 24.6739 56.824C24.3219 56.6333 24.0469 56.3657 23.8489 56.021C23.6583 55.669 23.5629 55.262 23.5629 54.8V53.15C23.5629 52.6807 23.6583 52.2737 23.8489 51.929C24.0469 51.5843 24.3219 51.3167 24.6739 51.126C25.0333 50.9353 25.4513 50.84 25.9279 50.84C26.4046 50.84 26.8189 50.9353 27.1709 51.126C27.5303 51.3167 27.8053 51.5843 27.9959 51.929C28.1939 52.2737 28.2929 52.6807 28.2929 53.15V54.217H24.5309V54.8C24.5309 55.2767 24.6519 55.6433 24.8939 55.9C25.1359 56.1493 25.4806 56.274 25.9279 56.274C26.3093 56.274 26.6173 56.208 26.8519 56.076C27.0866 55.9367 27.2296 55.7313 27.2809 55.46H28.2709C28.2049 55.966 27.9556 56.3693 27.5229 56.67C27.0976 56.9633 26.5659 57.11 25.9279 57.11ZM27.3249 53.557V53.15C27.3249 52.6733 27.2039 52.3067 26.9619 52.05C26.7273 51.7933 26.3826 51.665 25.9279 51.665C25.4806 51.665 25.1359 51.7933 24.8939 52.05C24.6519 52.3067 24.5309 52.6733 24.5309 53.15V53.469H27.4019L27.3249 53.557ZM32.3366 57.088C31.926 57.088 31.5666 57.0257 31.2586 56.901C30.958 56.769 30.716 56.5857 30.5326 56.351C30.3566 56.1163 30.2503 55.8377 30.2136 55.515H31.2036C31.2476 55.7277 31.365 55.8963 31.5556 56.021C31.7536 56.1457 32.014 56.208 32.3366 56.208H32.7986C33.1873 56.208 33.477 56.131 33.6676 55.977C33.8583 55.8157 33.9536 55.603 33.9536 55.339C33.9536 55.0823 33.8656 54.8807 33.6896 54.734C33.521 54.58 33.268 54.4773 32.9306 54.426L32.1166 54.294C31.5226 54.1913 31.079 54.008 30.7856 53.744C30.4996 53.4727 30.3566 53.0803 30.3566 52.567C30.3566 52.0243 30.529 51.6063 30.8736 51.313C31.2183 51.0123 31.7353 50.862 32.4246 50.862H32.8426C33.422 50.862 33.8876 50.9977 34.2396 51.269C34.5916 51.5403 34.8043 51.907 34.8776 52.369H33.8876C33.8436 52.1783 33.7336 52.028 33.5576 51.918C33.3816 51.8007 33.1433 51.742 32.8426 51.742H32.4246C32.0506 51.742 31.7756 51.8117 31.5996 51.951C31.431 52.0903 31.3466 52.2993 31.3466 52.578C31.3466 52.8273 31.42 53.0107 31.5666 53.128C31.7133 53.2453 31.9443 53.3297 32.2596 53.381L33.0736 53.513C33.7263 53.6157 34.1993 53.8063 34.4926 54.085C34.7933 54.3637 34.9436 54.767 34.9436 55.295C34.9436 55.8523 34.764 56.2923 34.4046 56.615C34.0526 56.9303 33.5173 57.088 32.7986 57.088H32.3366ZM39.7793 57C39.2587 57 38.8517 56.8607 38.5583 56.582C38.2723 56.3033 38.1293 55.911 38.1293 55.405V51.852H36.4243V50.95H38.1293V49.245H39.1193V50.95H41.5393V51.852H39.1193V55.405C39.1193 55.867 39.3393 56.098 39.7793 56.098H41.4293V57H39.7793ZM43.35 57V56.098H45.495V51.852H43.625V50.95H46.485V56.098H48.52V57H43.35ZM45.88 49.861C45.638 49.861 45.4474 49.7987 45.308 49.674C45.1687 49.5493 45.099 49.3807 45.099 49.168C45.099 48.948 45.1687 48.7757 45.308 48.651C45.4474 48.519 45.638 48.453 45.88 48.453C46.122 48.453 46.3127 48.519 46.452 48.651C46.5914 48.7757 46.661 48.948 46.661 49.168C46.661 49.3807 46.5914 49.5493 46.452 49.674C46.3127 49.7987 46.122 49.861 45.88 49.861ZM50.0227 57V50.95H51.0127V52.105H51.2217L51.0127 52.336C51.0127 51.8593 51.1557 51.4927 51.4417 51.236C51.7277 50.972 52.1237 50.84 52.6297 50.84C53.2384 50.84 53.7224 51.027 54.0817 51.401C54.4411 51.775 54.6207 52.2847 54.6207 52.93V57H53.6307V53.04C53.6307 52.6073 53.5134 52.2773 53.2787 52.05C53.0514 51.8153 52.7397 51.698 52.3437 51.698C51.9331 51.698 51.6067 51.8227 51.3647 52.072C51.1301 52.3213 51.0127 52.6807 51.0127 53.15V57H50.0227ZM58.9064 57.088C58.4224 57.088 58.0044 56.9963 57.6524 56.813C57.3004 56.6297 57.0254 56.3657 56.8274 56.021C56.6368 55.669 56.5414 55.2547 56.5414 54.778V53.172C56.5414 52.688 56.6368 52.2737 56.8274 51.929C57.0254 51.5843 57.3004 51.3203 57.6524 51.137C58.0044 50.9537 58.4224 50.862 58.9064 50.862C59.3904 50.862 59.8084 50.9537 60.1604 51.137C60.5124 51.3203 60.7838 51.5843 60.9744 51.929C61.1724 52.2737 61.2714 52.6843 61.2714 53.161V54.778C61.2714 55.2547 61.1724 55.669 60.9744 56.021C60.7838 56.3657 60.5124 56.6297 60.1604 56.813C59.8084 56.9963 59.3904 57.088 58.9064 57.088ZM58.9064 56.208C59.3391 56.208 59.6764 56.087 59.9184 55.845C60.1604 55.603 60.2814 55.2473 60.2814 54.778V53.172C60.2814 52.7027 60.1604 52.347 59.9184 52.105C59.6764 51.863 59.3391 51.742 58.9064 51.742C58.4811 51.742 58.1438 51.863 57.8944 52.105C57.6524 52.347 57.5314 52.7027 57.5314 53.172V54.778C57.5314 55.2473 57.6524 55.603 57.8944 55.845C58.1438 56.087 58.4811 56.208 58.9064 56.208ZM72.1419 57.11C71.6579 57.11 71.2362 57.0183 70.8769 56.835C70.5249 56.6517 70.2499 56.3877 70.0519 56.043C69.8612 55.691 69.7659 55.2767 69.7659 54.8V51.17C69.7659 50.686 69.8612 50.2717 70.0519 49.927C70.2499 49.5823 70.5249 49.3183 70.8769 49.135C71.2362 48.9517 71.6579 48.86 72.1419 48.86C72.6259 48.86 73.0439 48.9553 73.3959 49.146C73.7479 49.3293 74.0192 49.5933 74.2099 49.938C74.4005 50.2827 74.4959 50.6933 74.4959 51.17H73.5059C73.5059 50.7153 73.3849 50.367 73.1429 50.125C72.9082 49.8757 72.5745 49.751 72.1419 49.751C71.7092 49.751 71.3682 49.872 71.1189 50.114C70.8769 50.356 70.7559 50.7043 70.7559 51.159V54.8C70.7559 55.2547 70.8769 55.6067 71.1189 55.856C71.3682 56.098 71.7092 56.219 72.1419 56.219C72.5745 56.219 72.9082 56.098 73.1429 55.856C73.3849 55.6067 73.5059 55.2547 73.5059 54.8H74.4959C74.4959 55.2693 74.4005 55.68 74.2099 56.032C74.0192 56.3767 73.7479 56.6443 73.3959 56.835C73.0439 57.0183 72.6259 57.11 72.1419 57.11ZM78.6936 57.088C78.2096 57.088 77.7916 56.9963 77.4396 56.813C77.0876 56.6297 76.8126 56.3657 76.6146 56.021C76.4239 55.669 76.3286 55.2547 76.3286 54.778V53.172C76.3286 52.688 76.4239 52.2737 76.6146 51.929C76.8126 51.5843 77.0876 51.3203 77.4396 51.137C77.7916 50.9537 78.2096 50.862 78.6936 50.862C79.1776 50.862 79.5956 50.9537 79.9476 51.137C80.2996 51.3203 80.5709 51.5843 80.7616 51.929C80.9596 52.2737 81.0586 52.6843 81.0586 53.161V54.778C81.0586 55.2547 80.9596 55.669 80.7616 56.021C80.5709 56.3657 80.2996 56.6297 79.9476 56.813C79.5956 56.9963 79.1776 57.088 78.6936 57.088ZM78.6936 56.208C79.1262 56.208 79.4636 56.087 79.7056 55.845C79.9476 55.603 80.0686 55.2473 80.0686 54.778V53.172C80.0686 52.7027 79.9476 52.347 79.7056 52.105C79.4636 51.863 79.1262 51.742 78.6936 51.742C78.2682 51.742 77.9309 51.863 77.6816 52.105C77.4396 52.347 77.3186 52.7027 77.3186 53.172V54.778C77.3186 55.2473 77.4396 55.603 77.6816 55.845C77.9309 56.087 78.2682 56.208 78.6936 56.208ZM78.0556 49.905L79.2216 48.365H80.2886L79.0676 49.905H78.0556ZM83.2103 57V50.95H84.1783V52.105H84.4093L84.0903 52.82C84.0903 52.1673 84.2296 51.676 84.5083 51.346C84.7943 51.0087 85.2159 50.84 85.7733 50.84C86.4113 50.84 86.9173 51.0417 87.2913 51.445C87.6726 51.841 87.8633 52.38 87.8633 53.062V53.425H86.8733V53.15C86.8733 52.6733 86.7559 52.3103 86.5213 52.061C86.2939 51.8043 85.9676 51.676 85.5423 51.676C85.1243 51.676 84.7943 51.8043 84.5523 52.061C84.3176 52.3177 84.2003 52.6807 84.2003 53.15V57H83.2103ZM91.533 57.11C90.9316 57.11 90.444 56.9083 90.07 56.505C89.7033 56.1017 89.52 55.5553 89.52 54.866V53.095C89.52 52.3983 89.7033 51.8483 90.07 51.445C90.4366 51.0417 90.9243 50.84 91.533 50.84C92.0316 50.84 92.4313 50.9757 92.732 51.247C93.0326 51.5183 93.183 51.8813 93.183 52.336L92.985 52.105H93.205L93.183 50.73V48.97H94.173V57H93.183V55.845H92.985L93.183 55.614C93.183 56.076 93.0326 56.4427 92.732 56.714C92.4313 56.978 92.0316 57.11 91.533 57.11ZM91.863 56.252C92.2736 56.252 92.5963 56.1237 92.831 55.867C93.0656 55.6103 93.183 55.2547 93.183 54.8V53.15C93.183 52.6953 93.0656 52.3397 92.831 52.083C92.5963 51.8263 92.2736 51.698 91.863 51.698C91.445 51.698 91.115 51.8227 90.873 52.072C90.631 52.3213 90.51 52.6807 90.51 53.15V54.8C90.51 55.2693 90.631 55.6287 90.873 55.878C91.115 56.1273 91.445 56.252 91.863 56.252ZM98.4807 57.088C97.9967 57.088 97.5787 56.9963 97.2267 56.813C96.8747 56.6297 96.5997 56.3657 96.4017 56.021C96.211 55.669 96.1157 55.2547 96.1157 54.778V53.172C96.1157 52.688 96.211 52.2737 96.4017 51.929C96.5997 51.5843 96.8747 51.3203 97.2267 51.137C97.5787 50.9537 97.9967 50.862 98.4807 50.862C98.9647 50.862 99.3827 50.9537 99.7347 51.137C100.087 51.3203 100.358 51.5843 100.549 51.929C100.747 52.2737 100.846 52.6843 100.846 53.161V54.778C100.846 55.2547 100.747 55.669 100.549 56.021C100.358 56.3657 100.087 56.6297 99.7347 56.813C99.3827 56.9963 98.9647 57.088 98.4807 57.088ZM98.4807 56.208C98.9133 56.208 99.2507 56.087 99.4927 55.845C99.7347 55.603 99.8557 55.2473 99.8557 54.778V53.172C99.8557 52.7027 99.7347 52.347 99.4927 52.105C99.2507 51.863 98.9133 51.742 98.4807 51.742C98.0553 51.742 97.718 51.863 97.4687 52.105C97.2267 52.347 97.1057 52.7027 97.1057 53.172V54.778C97.1057 55.2473 97.2267 55.603 97.4687 55.845C97.718 56.087 98.0553 56.208 98.4807 56.208ZM105.428 57.11C104.93 57.11 104.53 56.978 104.229 56.714C103.929 56.4427 103.778 56.076 103.778 55.614L103.976 55.845H103.778V57H102.788V48.97H103.778V50.73L103.756 52.105H103.976L103.778 52.336C103.778 51.8813 103.929 51.5183 104.229 51.247C104.537 50.9757 104.937 50.84 105.428 50.84C106.037 50.84 106.525 51.0417 106.891 51.445C107.258 51.8483 107.441 52.3983 107.441 53.095V54.866C107.441 55.5553 107.258 56.1017 106.891 56.505C106.525 56.9083 106.037 57.11 105.428 57.11ZM105.098 56.252C105.516 56.252 105.846 56.1273 106.088 55.878C106.33 55.6287 106.451 55.2693 106.451 54.8V53.15C106.451 52.6807 106.33 52.3213 106.088 52.072C105.846 51.8227 105.516 51.698 105.098 51.698C104.695 51.698 104.372 51.8263 104.13 52.083C103.896 52.3397 103.778 52.6953 103.778 53.15V54.8C103.778 55.2547 103.896 55.6103 104.13 55.867C104.372 56.1237 104.695 56.252 105.098 56.252ZM111.144 57.11C110.506 57.11 110.004 56.9487 109.637 56.626C109.27 56.296 109.087 55.8523 109.087 55.295C109.087 54.7303 109.27 54.2867 109.637 53.964C110.004 53.6413 110.499 53.48 111.122 53.48H112.992V52.875C112.992 52.501 112.878 52.215 112.651 52.017C112.431 51.8117 112.116 51.709 111.705 51.709C111.346 51.709 111.045 51.786 110.803 51.94C110.561 52.0867 110.422 52.2883 110.385 52.545H109.395C109.461 52.0243 109.707 51.61 110.132 51.302C110.557 50.994 111.089 50.84 111.727 50.84C112.424 50.84 112.974 51.0197 113.377 51.379C113.78 51.7383 113.982 52.226 113.982 52.842V57H113.014V55.845H112.849L113.014 55.68C113.014 56.12 112.842 56.4683 112.497 56.725C112.16 56.9817 111.709 57.11 111.144 57.11ZM111.386 56.329C111.855 56.329 112.24 56.2117 112.541 55.977C112.842 55.7423 112.992 55.4417 112.992 55.075V54.217H111.144C110.814 54.217 110.554 54.3087 110.363 54.492C110.172 54.6753 110.077 54.9247 110.077 55.24C110.077 55.5773 110.191 55.845 110.418 56.043C110.653 56.2337 110.975 56.329 111.386 56.329Z" fill="white"/>
<path d="M28.7074 17.4865L0 46.6885L11.7644 39.8847C13.0776 38.1429 15.5816 37.5079 16.6694 37.4081C19.077 37.9089 20.9426 35.8387 21.5745 34.741L24.7208 28.672C29.0669 19.2664 34.1531 24.499 36.1529 28.291C36.9346 30.5989 41.768 33.5526 44.087 34.741L41.2143 28.672C40.8235 26.3424 43.3705 25.2157 44.6928 24.9435C47.7883 33.7177 59.5709 40.5016 65.0752 42.7968C56.3047 32.6509 52.9396 21.4963 52.3533 17.1872C52.9318 19.7563 57.4408 23.737 59.623 25.4062C53.0256 11.276 55.9361 7.45318 58.216 7.30803C57.6219 5.52271 62.0983 10.211 64.4108 12.7783C64.2388 14.5854 69.0553 21.4056 71.4851 24.5897L70.0194 20.4802C67.7213 10.6174 71.6675 15.5361 73.9278 19.2283C76.1634 25.477 81.5037 30.1961 83.8943 31.7746C82.0026 29.5538 81.7251 27.021 81.8228 26.0321C87.4822 33.4347 98.3034 36.7187 103.007 37.4354C98.7698 31.6875 97.6064 28.9442 97.5542 28.291C104.48 38.2409 121.48 44.974 129.115 47.0968C111.996 38.475 102.648 25.76 100.114 20.4802C99.6922 18.9997 98.2317 19.0287 97.5542 19.2283L88.8971 22.3309C88.8658 23.4413 90.3432 25.7691 91.0858 26.7942C88.3186 25.8144 86.7149 22.1766 86.2589 20.4802C85.446 18.3248 84.7998 18.3121 84.5783 18.5752C80.9044 18.7493 77.3542 15.5815 76.0384 13.9758C76.0384 11.1672 73.9409 9.84813 72.8921 9.53969C68.9837 10.1058 64.2545 5.33039 62.3784 2.87194C60.987 -0.91643 58.7371 -0.158031 57.786 0.694715C52.2048 2.52358 44.4127 12.0526 41.2143 16.5884C39.5103 22.3363 37.13 22.3218 36.1529 21.5961L32.5767 17.4865C31.1071 15.244 29.3848 16.5522 28.7074 17.4865Z" fill="white"/>
</svg>
