<svg xmlns="http://www.w3.org/2000/svg" viewBox="0 0 500 500"><g id="freepik--background-complete--inject-1"><rect y="382.4" width="500" height="0.25" style="fill:#ebebeb"></rect><rect x="416.78" y="398.49" width="33.12" height="0.25" style="fill:#ebebeb"></rect><rect x="322.53" y="401.21" width="8.69" height="0.25" style="fill:#ebebeb"></rect><rect x="396.59" y="389.21" width="19.19" height="0.25" style="fill:#ebebeb"></rect><rect x="52.46" y="390.89" width="43.19" height="0.25" style="fill:#ebebeb"></rect><rect x="104.56" y="390.89" width="6.33" height="0.25" style="fill:#ebebeb"></rect><rect x="131.47" y="395.11" width="93.68" height="0.25" style="fill:#ebebeb"></rect><path d="M237,337.8H43.91a5.71,5.71,0,0,1-5.7-5.71V60.66A5.71,5.71,0,0,1,43.91,55H237a5.71,5.71,0,0,1,5.71,5.71V332.09A5.71,5.71,0,0,1,237,337.8ZM43.91,55.2a5.46,5.46,0,0,0-5.45,5.46V332.09a5.46,5.46,0,0,0,5.45,5.46H237a5.47,5.47,0,0,0,5.46-5.46V60.66A5.47,5.47,0,0,0,237,55.2Z" style="fill:#ebebeb"></path><path d="M453.31,337.8H260.21a5.72,5.72,0,0,1-5.71-5.71V60.66A5.72,5.72,0,0,1,260.21,55h193.1A5.71,5.71,0,0,1,459,60.66V332.09A5.71,5.71,0,0,1,453.31,337.8ZM260.21,55.2a5.47,5.47,0,0,0-5.46,5.46V332.09a5.47,5.47,0,0,0,5.46,5.46h193.1a5.47,5.47,0,0,0,5.46-5.46V60.66a5.47,5.47,0,0,0-5.46-5.46Z" style="fill:#ebebeb"></path><path d="M333.79,173.8a8,8,0,1,1-10.91-2.93A8,8,0,0,1,333.79,173.8Z" style="fill:#f5f5f5"></path><path d="M324.86,177.09c.25.42.74.4,1.35.25l-.92-1.58C324.72,176.22,324.64,176.7,324.86,177.09Z" style="fill:#ebebeb"></path><path d="M327.67,178.18l.9,1.58c.6-.48.7-.94.48-1.32S328.29,178,327.67,178.18Z" style="fill:#ebebeb"></path><path d="M323.47,171.89a6.81,6.81,0,1,0,9.31,2.49A6.81,6.81,0,0,0,323.47,171.89Zm5.66,8.84.58,1-.73.42-.57-1a4.52,4.52,0,0,1-2.61.52l-.11-1.13a4.07,4.07,0,0,0,2.17-.35l-1-1.78c-1.13.33-2.37.62-3.08-.62-.53-.9-.33-2.08,1-3l-.58-1,.73-.43.57,1a4.51,4.51,0,0,1,2.12-.5l.16,1.11a4.26,4.26,0,0,0-1.72.35l1,1.8c1.13-.33,2.39-.64,3.1.59C330.66,178.61,330.45,179.78,329.13,180.73Z" style="fill:#ebebeb"></path><circle cx="385.43" cy="214.22" r="12.99" transform="translate(-24.83 375.9) rotate(-50.57)" style="fill:#f5f5f5"></circle><path d="M384.07,211c-.24.77.33,1.34,1.16,1.9l.91-2.83C385,209.91,384.3,210.33,384.07,211Z" style="fill:#ebebeb"></path><path d="M385.82,215.61l-.91,2.82c1.22.2,1.89-.19,2.11-.87S386.68,216.19,385.82,215.61Z" style="fill:#ebebeb"></path><path d="M388.81,203.66a11.09,11.09,0,1,0,7.18,14A11.1,11.1,0,0,0,388.81,203.66Zm-4.45,16.5-.57,1.78-1.31-.41.57-1.77a7.37,7.37,0,0,1-3.48-2.57l1.23-1.38a6.41,6.41,0,0,0,2.8,2.23l1-3.18c-1.63-1-3.34-2.18-2.63-4.39.52-1.62,2.15-2.66,4.71-2.1l.57-1.8,1.31.42-.57,1.76a7.16,7.16,0,0,1,2.92,2l-1.17,1.4a6.77,6.77,0,0,0-2.3-1.69l-1,3.22c1.63,1,3.38,2.17,2.67,4.38C388.58,219.69,386.94,220.71,384.36,220.16Z" style="fill:#ebebeb"></path><circle cx="56.89" cy="231.43" r="12.99" transform="translate(-69.17 29.18) rotate(-18.12)" style="fill:#f5f5f5"></circle><path d="M53.6,230.34c.41.69,1.22.64,2.2.38l-1.53-2.55C53.35,228.93,53.23,229.71,53.6,230.34Z" style="fill:#ebebeb"></path><path d="M58.19,232.06l1.51,2.54c1-.78,1.11-1.54.74-2.15S59.2,231.79,58.19,232.06Z" style="fill:#ebebeb"></path><path d="M51.21,221.91a11.09,11.09,0,1,0,15.21,3.84A11.08,11.08,0,0,0,51.21,221.91Zm9.43,14.25,1,1.61-1.18.7-1-1.59a7.37,7.37,0,0,1-4.23.91L55,236a6.36,6.36,0,0,0,3.52-.62l-1.71-2.87c-1.82.56-3.84,1.06-5-.93-.87-1.46-.57-3.37,1.54-4.93l-1-1.62,1.18-.7,1,1.59a7.24,7.24,0,0,1,3.44-.86l.27,1.8a7,7,0,0,0-2.78.61l1.72,2.9c1.83-.56,3.86-1.09,5.05.9C63.08,232.69,62.75,234.59,60.64,236.16Z" style="fill:#ebebeb"></path><path d="M290.71,96.2A13,13,0,1,1,288.13,78,13,13,0,0,1,290.71,96.2Z" style="fill:#f5f5f5"></path><path d="M280.09,84.93c-.48.64-.13,1.37.47,2.18l1.79-2.38C281.29,84.16,280.53,84.34,280.09,84.93Z" style="fill:#ebebeb"></path><path d="M280.23,89.83l-1.78,2.36c1.09.59,1.85.44,2.28-.13S280.86,90.65,280.23,89.83Z" style="fill:#ebebeb"></path><path d="M287,79.52a11.09,11.09,0,1,0,2.2,15.53A11.09,11.09,0,0,0,287,79.52Zm-9.63,14.12-1.12,1.5-1.1-.82,1.11-1.49a7.31,7.31,0,0,1-2.43-3.56l1.61-.9a6.35,6.35,0,0,0,1.91,3l2-2.67c-1.21-1.47-2.44-3.15-1.05-5,1-1.36,2.91-1.8,5.15-.44l1.13-1.51,1.1.83-1.12,1.48a7.16,7.16,0,0,1,2.1,2.85l-1.56.94a7,7,0,0,0-1.62-2.35l-2,2.7c1.21,1.47,2.47,3.16,1.08,5C281.5,94.59,279.62,95,277.36,93.64Z" style="fill:#ebebeb"></path><path d="M78.14,302.36A8.72,8.72,0,1,1,66.35,306,8.72,8.72,0,0,1,78.14,302.36Z" style="fill:#f5f5f5"></path><path d="M71.79,310.58c.47.25.92-.06,1.39-.54l-1.76-.94C71.15,309.86,71.35,310.35,71.79,310.58Z" style="fill:#ebebeb"></path><path d="M75,310l1.75.93c.28-.78.1-1.27-.32-1.49S75.5,309.46,75,310Z" style="fill:#ebebeb"></path><path d="M67.48,306.58a7.44,7.44,0,1,0,10.06-3.1A7.45,7.45,0,0,0,67.48,306.58Zm10.37,4.89,1.11.59-.43.81-1.1-.58a4.88,4.88,0,0,1-2.11,2l-.76-1a4.26,4.26,0,0,0,1.8-1.58l-2-1.05c-.85,1-1.83,1.95-3.21,1.22-1-.53-1.5-1.73-.83-3.36l-1.12-.59.43-.81,1.1.58A4.83,4.83,0,0,1,72.42,306l.78.93a4.72,4.72,0,0,0-1.38,1.32l2,1.06c.85-.95,1.83-2,3.21-1.24C78,308.62,78.52,309.83,77.85,311.47Z" style="fill:#ebebeb"></path><circle cx="200.23" cy="118.64" r="18.93" transform="matrix(0.94, -0.34, 0.34, 0.94, -28.18, 73.98)" style="fill:#f5f5f5"></circle><path d="M202,113.91c-1,.56-1,1.73-.67,3.17l3.8-2.08C204.05,113.61,202.93,113.39,202,113.91Z" style="fill:#ebebeb"></path><path d="M199.25,120.5l-3.77,2.07c1.09,1.43,2.17,1.69,3.09,1.19S199.59,122,199.25,120.5Z" style="fill:#ebebeb"></path><path d="M214.39,110.86A16.16,16.16,0,1,0,208,132.8,16.15,16.15,0,0,0,214.39,110.86Zm-21.24,13-2.39,1.31-1-1.75,2.37-1.3a10.68,10.68,0,0,1-1.11-6.2l2.69-.22a9.37,9.37,0,0,0,.72,5.16l4.27-2.35c-.73-2.68-1.35-5.65,1.61-7.28,2.18-1.19,4.94-.66,7.09,2.5l2.41-1.33,1,1.75-2.37,1.3a10.54,10.54,0,0,1,1.08,5l-2.64.31a10,10,0,0,0-.75-4.09l-4.31,2.37c.73,2.68,1.4,5.67-1.57,7.31C198.09,127.58,195.33,127,193.15,123.85Z" style="fill:#ebebeb"></path><path d="M430.61,156.18l-22.11-38.3a4.81,4.81,0,0,0-8.32,0l-22.11,38.3a4.8,4.8,0,0,0,4.16,7.2h44.22A4.81,4.81,0,0,0,430.61,156.18Z" style="fill:#f5f5f5"></path><path d="M401.66,154.34a2.62,2.62,0,0,1,2.72-2.64,2.64,2.64,0,0,1,0,5.27A2.64,2.64,0,0,1,401.66,154.34Zm.37-26.45h4.65l-.78,19.73h-3.13Z" style="fill:#ebebeb"></path><path d="M158.44,311.48l-17.06-29.55a3.71,3.71,0,0,0-6.42,0L117.9,311.48a3.7,3.7,0,0,0,3.21,5.56h34.12A3.7,3.7,0,0,0,158.44,311.48Z" style="fill:#f5f5f5"></path><path d="M136.1,310.06a2,2,0,0,1,2.1-2,2,2,0,0,1,2,2,2,2,0,0,1-2,2A2,2,0,0,1,136.1,310.06Zm.29-20.41H140l-.6,15.23H137Z" style="fill:#ebebeb"></path><rect x="334.97" y="233.03" width="14.13" height="1.39" style="fill:#ebebeb"></rect><rect x="334.97" y="245.49" width="14.13" height="7.49" style="fill:#ebebeb"></rect><polygon points="349.1 271.32 349.1 255.19 334.97 255.19 334.97 271.32 331.48 271.32 342.04 285.49 352.59 271.32 349.1 271.32" style="fill:#ebebeb"></polygon><rect x="334.97" y="238.17" width="14.13" height="3.74" style="fill:#ebebeb"></rect><rect x="131.76" y="42.77" width="12.82" height="1.26" style="fill:#ebebeb"></rect><rect x="131.76" y="54.07" width="12.82" height="6.8" style="fill:#ebebeb"></rect><polygon points="144.58 77.52 144.58 62.88 131.76 62.88 131.76 77.52 128.59 77.52 138.17 90.37 147.75 77.52 144.58 77.52" style="fill:#ebebeb"></polygon><rect x="131.76" y="47.43" width="12.82" height="3.4" style="fill:#ebebeb"></rect><rect x="100.66" y="197.19" width="14.13" height="1.39" style="fill:#ebebeb"></rect><rect x="100.66" y="209.65" width="14.13" height="7.49" style="fill:#ebebeb"></rect><polygon points="114.79 235.48 114.79 219.35 100.66 219.35 100.66 235.48 97.17 235.48 107.72 249.65 118.28 235.48 114.79 235.48" style="fill:#ebebeb"></polygon><rect x="100.66" y="202.33" width="14.13" height="3.74" style="fill:#ebebeb"></rect><rect x="354.05" y="98.3" width="9.68" height="0.95" style="fill:#ebebeb"></rect><rect x="354.05" y="106.83" width="9.68" height="5.13" style="fill:#ebebeb"></rect><polygon points="363.73 124.52 363.73 113.47 354.05 113.47 354.05 124.52 351.66 124.52 358.89 134.22 366.12 124.52 363.73 124.52" style="fill:#ebebeb"></polygon><rect x="354.05" y="101.81" width="9.68" height="2.56" style="fill:#ebebeb"></rect></g><g id="freepik--Shadow--inject-1"><ellipse id="freepik--path--inject-1" cx="250" cy="413.91" rx="193.89" ry="19" style="fill:#f5f5f5"></ellipse></g><g id="freepik--Plant--inject-1"><path d="M404.18,366.11s1.5-11,8.54-12.2,4.91-6.52,6.74-8.58,6.62,4,2.52,9.9-.75,4-2.52,9.51S403.54,375.23,404.18,366.11Z" style="fill:#263238"></path><path d="M406.52,373.81a.66.66,0,0,1-.63-.91c.05-.11,4.35-11.64.17-29.21a74.48,74.48,0,0,0-5.44-14.63c-4.08-8.85-7.6-16.5-2.38-30.78,1.61-4.4,3.28-8.51,4.9-12.48,5.94-14.6,10.63-26.13,5.7-36.77a.67.67,0,0,1,1.22-.56c5.17,11.16.38,22.93-5.68,37.84-1.62,4-3.28,8.05-4.88,12.43-5,13.76-1.78,20.82,2.33,29.76a76.26,76.26,0,0,1,5.53,14.88c4.29,18,0,29.52-.22,30A.66.66,0,0,1,406.52,373.81Z" style="fill:#263238"></path><path d="M408.53,371.06s4.55-6.85-2-10.38-7.88-.68-11.94-3.22-7.14-8.67-7.83-4.74,4,6.17,2.34,8S400.13,374.15,408.53,371.06Z" style="fill:#263238"></path><path d="M411.83,254.3s3.34-13.78-6.73-13.25S407.11,253.24,411.83,254.3Z" style="fill:#263238"></path><path d="M403.93,265.32s-4-12-10.89-8.82S396.84,266.11,403.93,265.32Z" style="fill:#263238"></path><path d="M416.11,265.41s-1.86-9.66,5.69-10.46S426.67,263,416.11,265.41Z" style="fill:#263238"></path><path d="M412.67,285.68s9.43-9.87,13.62-3.42S419.28,291,412.67,285.68Z" style="fill:#263238"></path><path d="M394.58,285.51s-3.12-14.88-10.94-9.5S387.55,287.59,394.58,285.51Z" style="fill:#263238"></path><path d="M389.09,307.61s4.83-15.67-6.28-13.06S380.85,304.56,389.09,307.61Z" style="fill:#263238"></path><path d="M406.78,311.65s8.61-12,16.15-9S425.44,317.23,406.78,311.65Z" style="fill:#263238"></path><path d="M400.15,337.14s-9.54-17.33-16.25-10.69S389.7,341.19,400.15,337.14Z" style="fill:#263238"></path><path d="M411.83,335.14s-3.26-13.77,4.84-13.29S423.36,331,411.83,335.14Z" style="fill:#263238"></path><path d="M408.92,273.23l-.14,0a.65.65,0,0,1-.43-.29c0-.08-4.45-7.09-7.44-8.58a.66.66,0,1,1,.59-1.19c2.81,1.39,6.43,6.67,7.61,8.47a35.64,35.64,0,0,0,8.68-9.94.67.67,0,0,1,1.16.66c-.16.28-3.95,7-9.66,10.78A.7.7,0,0,1,408.92,273.23Z" style="fill:#263238"></path><path d="M401.21,292.62h-.08a.72.72,0,0,1-.47-.28c-.05-.08-5.47-7.7-11.86-10.81a.66.66,0,0,1-.31-.89.67.67,0,0,1,.89-.31c5.71,2.77,10.5,8.73,11.94,10.64,8.17-6.89,18.59-7.46,19-7.48a.68.68,0,0,1,.7.63.67.67,0,0,1-.64.7c-.1,0-10.88.61-18.77,7.63A.66.66,0,0,1,401.21,292.62Z" style="fill:#263238"></path><path d="M397.32,317.74a.68.68,0,0,1-.38-.12c-6.48-4.4-12.11-16.15-12.35-16.65a.68.68,0,0,1,.32-.89.67.67,0,0,1,.89.32c.06.12,5.49,11.46,11.53,15.85,2.16-1.44,12.58-8.16,21-9a.68.68,0,0,1,.74.6.67.67,0,0,1-.6.73c-8.87.89-20.62,9-20.74,9A.66.66,0,0,1,397.32,317.74Z" style="fill:#263238"></path><path d="M406.52,342.65a.65.65,0,0,1-.51-.24,26.63,26.63,0,0,0-13.94-7.54.69.69,0,0,1-.52-.8.67.67,0,0,1,.8-.51,28.2,28.2,0,0,1,14.25,7.52c4.08-3.38,8.84-14.77,8.89-14.89a.67.67,0,0,1,.88-.36.67.67,0,0,1,.36.87c-.22.52-5.33,12.76-9.84,15.83A.63.63,0,0,1,406.52,342.65Z" style="fill:#263238"></path><path d="M407.84,369.42s3.89-6.2,8.3-7.09,6.3-5.95,7.93-2.9S421.21,372.59,407.84,369.42Z" style="fill:#263238"></path><polygon points="433.34 367.28 432.24 373.99 431.99 375.49 431.62 377.79 431.38 379.18 430.74 383.12 430.67 383.59 430.34 385.57 430.15 386.71 429.82 388.73 429.74 389.22 428.55 396.46 428.14 398.96 385.07 398.96 384.67 396.46 383.48 389.22 383.4 388.73 383.06 386.71 382.87 385.57 382.54 383.59 382.46 383.12 381.82 379.18 381.6 377.79 381.22 375.49 380.97 373.99 379.87 367.28 433.34 367.28" style="fill:#C53F3F"></polygon><g style="opacity:0.2"><polygon points="433.34 367.28 432.24 373.99 431.99 375.49 431.62 377.79 431.38 379.18 430.74 383.12 430.67 383.59 430.34 385.57 430.15 386.71 429.82 388.73 429.74 389.22 428.55 396.46 428.14 398.96 385.07 398.96 384.67 396.46 383.48 389.22 383.4 388.73 383.06 386.71 382.87 385.57 382.54 383.59 382.46 383.12 381.82 379.18 381.6 377.79 381.22 375.49 380.97 373.99 379.87 367.28 433.34 367.28"></polygon></g><polygon points="429.74 389.22 428.55 396.46 384.67 396.46 383.48 389.22 429.74 389.22" style="isolation:isolate;opacity:0.30000000000000004"></polygon><polygon points="430.74 383.12 430.67 383.59 430.34 385.57 382.87 385.57 382.54 383.59 382.46 383.12 430.74 383.12" style="isolation:isolate;opacity:0.30000000000000004"></polygon><polygon points="432.24 373.99 431.99 375.49 381.22 375.49 380.97 373.99 432.24 373.99" style="isolation:isolate;opacity:0.30000000000000004"></polygon><path d="M411.83,254.3s3.34-13.78-6.73-13.25S407.11,253.24,411.83,254.3Z" style="fill:#fff"></path><path d="M403.93,265.32s-4-12-10.89-8.82S396.84,266.11,403.93,265.32Z" style="fill:#fff"></path><path d="M416.11,265.41s-1.86-9.66,5.69-10.46S426.67,263,416.11,265.41Z" style="fill:#fff"></path><path d="M412.67,285.68s9.43-9.87,13.62-3.42S419.28,291,412.67,285.68Z" style="fill:#fff"></path><path d="M394.58,285.51s-3.12-14.88-10.94-9.5S387.55,287.59,394.58,285.51Z" style="fill:#fff"></path><path d="M389.09,307.61s4.83-15.67-6.28-13.06S380.85,304.56,389.09,307.61Z" style="fill:#fff"></path><path d="M406.78,311.65s8.61-12,16.15-9S425.44,317.23,406.78,311.65Z" style="fill:#fff"></path><path d="M400.15,337.14s-9.54-17.33-16.25-10.69S389.7,341.19,400.15,337.14Z" style="fill:#fff"></path><path d="M411.83,335.14s-3.26-13.77,4.84-13.29S423.36,331,411.83,335.14Z" style="fill:#fff"></path></g><g id="freepik--piggy-bank--inject-1"><path d="M99.62,363.17,91.5,340.74c-6-.93-9.83,5.08-9.83,5.08l1.23,16.83S89.94,368.26,99.62,363.17Z" style="fill:#C53F3F"></path><path d="M99.62,363.17,91.5,340.74c-6-.93-9.83,5.08-9.83,5.08l1.23,16.83S89.94,368.26,99.62,363.17Z" style="fill:#fff;opacity:0.2"></path><path d="M99.62,363.17,91.5,340.74c-6-.93-9.83,5.08-9.83,5.08l1.23,16.83S89.94,368.26,99.62,363.17Z" style="opacity:0.2"></path><path d="M84.33,356.19l-2.66-10.37,1.23,16.83s7,5.61,16.72.52l-2.1-5.79A113,113,0,0,0,84.33,356.19Z" style="opacity:0.2"></path><path d="M99.21,355.56l5.31,3.36L103,361l3.28.93,5,3.33-.94,1.91,1.72,2.84,1.77,2.29,1.81,3.5-.28,2.3-.15,6.35-3.94,2.05,3.14,2.42-1.82,3-.62,3.54-3.88.52,1.93,2.67A11.89,11.89,0,0,1,102.4,406a93.11,93.11,0,0,1-11.56,2.79L72.05,396l-3.23-20.27,5.24-12.89A43.3,43.3,0,0,1,99.21,355.56Z" style="fill:#C53F3F"></path><path d="M98.43,355.83l5.31,3.36-1.53,2.05,3.28.93,5,3.33-.94,1.91,1.72,2.84,1.77,2.28,1.81,3.51-.28,2.3-.15,6.35-3.94,2,3.14,2.42-1.82,3-.62,3.55-3.88.52,1.93,2.66a11.92,11.92,0,0,1-7.62,7.36,93.11,93.11,0,0,1-11.56,2.79l-18.79-12.8L68,376l5.24-12.89A43.3,43.3,0,0,1,98.43,355.83Z" style="opacity:0.4"></path><path d="M96.81,355.4c-.36.43-5.49,1.1-8.23,5,0,0,8.87-2.19,13.69,5.38s6.48,20.41-.22,28.16-10.2,8.7-10.2,8.7,7.94.22,11.23-3.7c0,0-1.31,7.36-10.6,9.32s-23-6.54-24.45-19-2.69-20.06,6-26.34S96.81,355.4,96.81,355.4Z" style="opacity:0.4"></path><path d="M97.75,355.45h0l1.47.12h0Z" style="fill:#C53F3F"></path><path d="M60,391.62q.12.4.27.81c.09.26.18.51.28.77s.18.46.28.68a1.42,1.42,0,0,0,.08.18c.21.46.42.91.66,1.36s.62,1.12,1,1.66.72,1.05,1.12,1.56l0,0,.46.56a20.1,20.1,0,0,0,2,2.12c.54.5,1.11,1,1.7,1.43.35.28.71.53,1.07.79l.56.37c.55.37,1.13.72,1.73,1.05l.14.08c.75.4,1.52.78,2.32,1.13.21.1.42.19.64.27l.65.26.66.24.66.23c.68.23,1.36.44,2.06.62l.7.17c.35.09.71.17,1.07.24l.64.13,1.15.18.74.11.74.09c.52.05,1,.1,1.58.13l.67,0a39.17,39.17,0,0,0,4.46-.05l.79-.06a40.56,40.56,0,0,0,8.09-1.58h0c.41-.12.82-.25,1.22-.39l.39-.13,1-.36.54-.22.28-.11-3.17.66-1.1.23-.54-.35-1.29.28h0l-4.17.9h0l-.41-.55c-.71-1-2.15-2.89-2.52-3.34-.5-.61-5-2.6-5-2.6l-4.06-2.7L80,395.88l-.86-5.21L77.37,389l1-3.6-3.3-2.59L72,379.1a29.78,29.78,0,0,1,1-3.45,18.62,18.62,0,0,1,3-3.06c.71-.54.66-4.66.66-4.66l0-2.8,5.33-3,.41-.93h0l.84-1.87,5.59-2.2,2.79.19.7-.93,5.38-.92h-.16l-.77,0c-1.13,0-2.27,0-3.42,0-.29,0-.57,0-.86.05l-.94.08-.78.09-.74.09c-1.19.17-2.39.39-3.59.67l-.87.21-.66.17-1.08.31c-9.23,2.77-16.57,8.44-20.81,15.21-.24.4-.49.8-.71,1.21A23.06,23.06,0,0,0,60,391.62Z" style="fill:#C53F3F"></path><path d="M97.75,355.45l1.47.12h0Z" style="fill:#fff;opacity:0.2"></path><path d="M60,391.62q.12.4.27.81c.09.26.18.51.28.77s.18.46.28.68a1.42,1.42,0,0,0,.08.18c.2.47.42.92.66,1.36s.62,1.12,1,1.66.73,1.05,1.12,1.56l0,0,.46.56a22.32,22.32,0,0,0,2,2.12c.54.5,1.11,1,1.7,1.43.35.28.71.53,1.07.79l.56.37c.56.36,1.14.71,1.73,1.05l.14.08c.75.4,1.52.78,2.32,1.13.21.1.42.19.64.27l.65.26.66.24.66.23c.68.23,1.36.44,2.06.62l.7.17c.35.09.71.17,1.07.24l.64.13,1.15.18.74.11.74.09c.52.05,1,.1,1.58.13l.67,0a39.17,39.17,0,0,0,4.46-.05l.79-.06a40.56,40.56,0,0,0,8.09-1.58h0c.41-.12.82-.25,1.22-.39l.39-.13,1-.36.54-.22.28-.11-3.17.66-1.1.23-.54-.35-1.29.28h0l-4.17.9h0l-.41-.55c-.71-1-2.15-2.89-2.52-3.34-.5-.61-5-2.6-5-2.6l-4.06-2.7L80,395.88l-.86-5.21L77.37,389l1-3.6-3.3-2.59L72,379.1a29.78,29.78,0,0,1,1-3.45,18.62,18.62,0,0,1,3-3.06c.71-.54.66-4.66.66-4.66l0-2.8,5.33-3,.41-.93h0l.84-1.87,5.59-2.2,2.79.19.7-.93,5.38-.92h-.16l-.77,0c-1.13,0-2.27,0-3.42,0-.29,0-.57,0-.86.05l-.94.08-.78.09-.74.09c-1.19.17-2.39.39-3.59.67l-.87.21-.66.17-1.08.31c-9.23,2.77-16.57,8.44-20.81,15.21-.24.4-.49.8-.71,1.21A23.06,23.06,0,0,0,60,391.62Z" style="fill:#fff;opacity:0.2"></path><path d="M60,391.62q.12.4.27.81c-1.5-6.95,2.25-20.88,14.15-27.75a37.8,37.8,0,0,1,8.05-3.5h0l.84-1.87,5.59-2.2,2.79.19.7-.93,5.38-.92h-.16l-.77,0c-1.13,0-2.27,0-3.42,0-.29,0-.57,0-.86.05l-.94.08-.78.09-.74.09c-1.19.17-2.39.39-3.59.67l-.87.21-.66.17-1.08.31c-9.23,2.77-16.57,8.44-20.81,15.21-.24.4-.49.8-.71,1.21A23.06,23.06,0,0,0,60,391.62Z" style="opacity:0.2"></path><path d="M85.25,408.2l4.22.36a43.11,43.11,0,0,0,9.76-1.89l-1.1.23-.54-.35-1.29.28h0l-4.17.9h0l-.41-.55c-1.59.36-3,.59-4.1.75C86.31,408.12,85.45,408.18,85.25,408.2Z" style="opacity:0.2"></path><path d="M96.29,406.83l-4.17.9A39.07,39.07,0,0,0,96.29,406.83Z" style="opacity:0.2"></path><path d="M87.61,407.93l1.73.15c1-.09,1.88-.21,2.78-.35l-.41-.55C90.12,407.54,88.7,407.77,87.61,407.93Z" style="opacity:0.2"></path><path d="M97.75,355.45l1.47.12h0l-1.46-.11Z"></path><path d="M62.42,376.28a15.13,15.13,0,0,0,6.73-5h0c.38-.47.74-.94,1.07-1.4.17-.23.32-.45.46-.67.38-.54.71-1.07,1-1.56l.32-.56.38-.69,0-.07c.06-.11.11-.22.17-.32s.12-.25.18-.35a1.19,1.19,0,0,1,.08-.16l.23-.49s0,0,0,0l.09-.19-10.86-9c-5.65-.05-9.83,5.08-9.83,5.08Z" style="fill:#C53F3F"></path><path d="M62.42,376.28a15.13,15.13,0,0,0,6.73-5h0c.38-.47.74-.94,1.07-1.4.17-.23.32-.45.46-.67.38-.54.71-1.07,1-1.56l.32-.56.38-.69,0-.07c.06-.11.11-.22.17-.32s.12-.25.18-.35a1.19,1.19,0,0,1,.08-.16l.23-.49s0,0,0,0l.09-.19-10.86-9c-5.65-.05-9.83,5.08-9.83,5.08Z" style="fill:#fff;opacity:0.2"></path><path d="M53.79,361.64l8-4.11L70,365.82a9.84,9.84,0,0,1-.79,5.46c.38-.47.74-.94,1.07-1.4.17-.23.32-.45.46-.67.38-.54.71-1.07,1-1.56l.32-.56c.14-.24.26-.47.38-.69l0-.07.17-.32c.07-.13.12-.25.18-.35l.08-.16c.1-.2.17-.36.23-.49s0,0,0,0a.94.94,0,0,0,.09-.19h0l-10.86-9c-5.65-.05-9.83,5.08-9.83,5.08l9.92,15.39Z" style="opacity:0.2"></path><polygon points="108.45 379.38 113.06 383.2 114.31 395.26 118.14 404.29 123.96 402.95 120.44 405.64 117.19 408.5 122.81 409.69 131.53 405.33 128.61 388.63 127.38 377.21 118.66 376.8 108.45 379.38" style="fill:#C53F3F"></polygon><polygon points="108.45 379.38 113.06 383.2 114.31 395.26 118.14 404.29 123.96 402.95 120.44 405.64 117.19 408.5 122.81 409.69 131.53 405.33 128.61 388.63 127.38 377.21 118.66 376.8 108.45 379.38" style="opacity:0.2"></polygon><path d="M155.68,383.2l10.54-21.39c-3.53-5-10.48-3.57-10.48-3.57l-11.28,12.55S145.3,379.76,155.68,383.2Z" style="fill:#C53F3F"></path><path d="M155.68,383.2l10.54-21.39c-3.53-5-10.48-3.57-10.48-3.57l-11.28,12.55S145.3,379.76,155.68,383.2Z" style="fill:#fff;opacity:0.2"></path><path d="M155.68,383.2l10.54-21.39c-3.53-5-10.48-3.57-10.48-3.57l-11.28,12.55S145.3,379.76,155.68,383.2Z" style="opacity:0.2"></path><path d="M150.11,367.35l5.62-9.11-11.27,12.55s.84,9,11.22,12.41l2.72-5.52A112.59,112.59,0,0,0,150.11,367.35Z" style="opacity:0.2"></path><path d="M108.31,380.94l-3.5,7.21,2.37,7.11,3.62,1.35-3.62,2.6a51.18,51.18,0,0,0,10,7.26l3.76-1.59,4.57.41-4.71,1.18-3.62,2v2.42a13.52,13.52,0,0,0,8.33,0l1.25.41v.88h0l2.16.18-.68.11.71-.1.34-.07.38-.06h0l1.41-.29c.46-.1.92-.22,1.39-.34.87-.23,1.73-.48,2.57-.76l.21-.08c.41-.13.82-.29,1.22-.43h0c.42-.16.84-.34,1.25-.51l1.11-.49c.86-.41,1.7-.85,2.51-1.31l1-.59c.11-.08.24-.15.35-.22l.8-.53.08,0a28.7,28.7,0,0,0,6.74-6.32c.26-.32.49-.65.72-1a24.2,24.2,0,0,0,2.26-4.07l.18-.44a21.57,21.57,0,0,0,1.31-4.57l.06-.4.06-.44c0-.22.05-.43.07-.65s0-.44.06-.67c0-.45,0-.89,0-1.35s0-.65,0-1,0-.62-.06-.93v0s0,0,0-.09v0c0-.21-.05-.41-.07-.62s0-.25,0-.36,0-.06,0-.08,0,0,0-.06,0-.25-.07-.38-.05-.29-.07-.43a.83.83,0,0,0,0-.15h0l0-.14,0-.13c0-.13-.05-.26-.08-.38s-.1-.43-.17-.65-.05-.17-.07-.26-.05-.18-.07-.27l0-.08c0-.06,0-.13,0-.2l0-.07c0-.08-.06-.17-.08-.25s-.11-.35-.18-.53a.13.13,0,0,1,0-.06,1.22,1.22,0,0,1-.07-.17c0-.07-.05-.12-.07-.19s0-.11-.07-.17-.14-.35-.2-.53l0-.05-.23-.53c-.07-.16-.14-.32-.22-.47v0a.36.36,0,0,1,0-.09l-.24-.48a.2.2,0,0,1,0-.08l-.2-.37-.07-.14c-.17-.29-.33-.59-.5-.87l0,0c-.14-.25-.3-.48-.45-.71l-.17-.27s0,0,0,0l-.32-.45a2.14,2.14,0,0,0-.13-.19l-.27-.36-.33-.43c-.13-.17-.26-.34-.4-.5l0,0-.34-.41-.06-.07-.14-.16-.14-.15a1.17,1.17,0,0,0-.15-.16c-.11-.14-.23-.26-.34-.38l-.12-.12-.09-.1-.17-.17-.18-.19c-.11-.1-.21-.21-.31-.31a1,1,0,0,0-.11-.1l-.27-.26-.39-.35-.16-.15,0,0-.14-.12c-.31-.27-.62-.54-1-.8l-.14-.11c-.37-.3-.74-.58-1.13-.87h0c-.39-.28-.79-.55-1.19-.82l-.09-.06-1.34-.83c-.36-.21-.72-.41-1.1-.61-.12-.08-.25-.14-.38-.21-.44-.23-.89-.45-1.34-.66s-1-.45-1.47-.65l0,0L135.9,363l-.73-.26a38.35,38.35,0,0,0-4.12-1.14l-.84-.18h0c-.28-.06-.55-.11-.83-.15-.44-.09-.87-.15-1.31-.22l-.66-.08-1.17-.13-.57-.05c-.22,0-.44,0-.66,0a8.88,8.88,0,0,0-.9-.05c-.59,0-1.19,0-1.8,0h-.66c-3.22.91-7.74,2.45-10.61,4.52l1.91,6.51-3.53.09-1,7.65,5.11,2.54Z" style="fill:#C53F3F"></path><path d="M107.18,395.26l3.62,1.35-3.62,2.6a51.18,51.18,0,0,0,10,7.26l3.76-1.59,4.57.41-4.71,1.18-3.62,2v2.42a13.52,13.52,0,0,0,8.33,0l1.25.41v.88h0l2.16.18.37-.06.38-.06h0l1.41-.29c.46-.1.92-.22,1.39-.34.87-.23,1.73-.48,2.57-.76l.21-.08c.41-.13.82-.29,1.22-.43h0c.42-.16.84-.34,1.25-.51l1.11-.49c.86-.41,1.7-.85,2.51-1.31l1-.59c.11-.08.24-.15.35-.22l.8-.53.08,0a28.7,28.7,0,0,0,6.74-6.32c.26-.32.49-.65.72-1a24.2,24.2,0,0,0,2.26-4.07l.18-.44a21.57,21.57,0,0,0,1.31-4.57l.06-.4.06-.44c0-.22.05-.43.07-.65s0-.44.06-.67c0-.45,0-.89,0-1.35s0-.65,0-1,0-.62-.06-.93v0s0,0,0-.09v0c0-.33-.07-.66-.12-1l-.09-.52c0-.15-.05-.29-.07-.43a.83.83,0,0,0,0-.15h0a2.56,2.56,0,0,0,0-.27c-.06-.27-.12-.54-.19-.8l-.06-.23c0-.09-.05-.17-.07-.26s-.05-.18-.07-.27l0-.08c0-.06,0-.13,0-.2l0-.07c0-.08-.06-.17-.08-.25s-.11-.35-.18-.53a.49.49,0,0,0,0-.11.56.56,0,0,1,0-.12c0-.07-.05-.12-.07-.19s0-.11-.07-.17-.14-.35-.2-.53l0-.05-.23-.53c-.07-.16-.14-.32-.22-.47v0a.36.36,0,0,1,0-.09l-.24-.48a.2.2,0,0,1,0-.08l-.2-.37-.07-.14c-.17-.29-.33-.59-.5-.87l0,0c-.14-.25-.3-.48-.45-.71l-.17-.27s0,0,0,0l-.32-.45a2.14,2.14,0,0,0-.13-.19l-.27-.36-.33-.43c-.13-.17-.26-.34-.4-.5l0,0-.34-.41-.06-.07-.14-.16-.14-.15a1.17,1.17,0,0,0-.15-.16c-.11-.14-.23-.26-.34-.38l-.12-.12-.09-.1-.17-.17-.6-.6-.27-.26-.39-.35-.16-.15,0,0-.14-.12c-.31-.27-.62-.54-1-.8l-.14-.11c-.37-.3-.74-.58-1.13-.87h0c-.39-.28-.79-.55-1.19-.82l-.09-.06-1.34-.83c-.36-.21-.72-.41-1.1-.61-.12-.08-.25-.14-.38-.21-.44-.23-.89-.45-1.34-.66s-1-.45-1.47-.65l0,0L135.9,363l-.73-.26a38.35,38.35,0,0,0-4.12-1.14l-.84-.18h0c-.28-.06-.55-.11-.83-.15-.44-.09-.87-.15-1.31-.22l-.66-.08-1.17-.13-.57-.05c-.22,0-.44,0-.66,0a8.88,8.88,0,0,0-.9-.05c-.59,0-1.19,0-1.8,0h-.66c-3.22.91-7.74,2.45-10.61,4.52l1.91,6.51-3.53.09-1,7.65,5.11,2.54-5.25-1-3.5,7.21Z" style="fill:#fff;opacity:0.2"></path><path d="M141.6,372.5a25.81,25.81,0,0,0-8.44,20.22c.56,9.1,6.54,15.48,10.46,13.94a28.7,28.7,0,0,0,6.74-6.32c.26-.32.49-.65.72-1a24.2,24.2,0,0,0,2.26-4.07l.18-.44a21.57,21.57,0,0,0,1.31-4.57l.06-.4.06-.44c0-.22.05-.43.07-.65s0-.44.06-.67c0-.45,0-.89,0-1.35s0-.65,0-1,0-.62-.06-.93v0s0,0,0-.09v0c0-.21-.05-.41-.07-.62s0-.25,0-.36,0-.06,0-.08,0,0,0-.06,0-.25-.07-.38-.05-.29-.07-.43a.83.83,0,0,0,0-.15h0l0-.14,0-.13c0-.13-.05-.26-.08-.38s-.07-.28-.11-.42l-.06-.23c0-.09-.05-.17-.07-.26s-.05-.18-.07-.27l0-.08a2.76,2.76,0,0,0-.08-.27c0-.08-.06-.17-.08-.25s-.11-.35-.18-.53a.13.13,0,0,1,0-.06l0-.05a.56.56,0,0,1,0-.12c0-.07-.05-.12-.07-.19s0-.11-.07-.17-.14-.35-.2-.53l0-.05-.23-.53c-.07-.16-.14-.32-.22-.47v0a.36.36,0,0,1,0-.09l-.24-.48a.2.2,0,0,1,0-.08l-.2-.37-.07-.14c-.17-.29-.33-.59-.5-.87l0,0a4.55,4.55,0,0,0-.28-.43l-.17-.28-.17-.27s0,0,0,0l-.32-.45c-.13-.18-.26-.37-.4-.55l-.33-.43c-.13-.17-.26-.34-.4-.5l0,0-.34-.41-.06-.07c-.1-.1-.19-.21-.28-.31a1.17,1.17,0,0,0-.15-.16c-.11-.14-.23-.26-.34-.38l-.12-.12-.09-.1-.17-.17-.18-.19c-.11-.1-.21-.21-.31-.31a1,1,0,0,0-.11-.1l-.27-.26-.39-.35-.16-.15,0,0-.14-.12c-.31-.27-.62-.54-1-.8l-.14-.11c-.37-.3-.74-.58-1.13-.87h0c-.39-.28-.79-.55-1.19-.82l-.09-.06-1.34-.83c-.36-.21-.72-.41-1.1-.61-.12-.08-.25-.14-.38-.21-.44-.23-.89-.45-1.34-.66s-1-.45-1.47-.65l0,0L135.9,363l-.73-.26a38.35,38.35,0,0,0-4.12-1.14l-.84-.18h0c-.28-.06-.55-.11-.83-.15-.44-.09-.87-.15-1.31-.22l-.66-.08-1.17-.13-.57-.05c-.22,0-.44,0-.66,0a8.88,8.88,0,0,0-.9-.05c-.59,0-1.19,0-1.8,0h-.66c-3.22.91-7.74,2.45-10.61,4.52C123.64,362.15,135.09,365.91,141.6,372.5Z" style="opacity:0.2"></path><path d="M117.19,410.92a13.52,13.52,0,0,0,8.33,0l1.25.41v.88h0a30.25,30.25,0,0,0,9.3-2.44l-2-.43-2.23-.48A37.13,37.13,0,0,1,117.19,410.92Z" style="opacity:0.2"></path><path d="M117.19,410.92a13.52,13.52,0,0,0,8.33,0l1.25.41h0a33.82,33.82,0,0,0,7.27-2l-2.23-.48A37.13,37.13,0,0,1,117.19,410.92Z" style="opacity:0.2"></path><path d="M148.48,406.61s1.68,5.18,9.5,8.07c0,0,1.28-.05.24-1.46,0,0,1.36-6.4.85-9.9S148.48,406.61,148.48,406.61Z" style="fill:#C53F3F"></path><path d="M158.22,413.23s1.36-6.41.85-9.91a1.34,1.34,0,0,0-.1-.37,1.15,1.15,0,0,0-1.07-.62,3.11,3.11,0,0,1,.26.87c0,.14,0,.3.06.47.46,5.34-1.77,7.6-1.77,7.6l.69,1.19a9.41,9.41,0,0,1-4.81-7.19l.1-.12a21.73,21.73,0,0,1,1.51-1.67,48,48,0,0,0-5.46,3.13s1.68,5.18,9.49,8.07c0,0,.59,0,.65-.47A1.42,1.42,0,0,0,158.22,413.23Z" style="fill:#fff;opacity:0.2"></path><path d="M158.22,413.23s1.36-6.41.85-9.91a1.34,1.34,0,0,0-.1-.37l-.81.25c-1.73.53-3.95,1.25-5.73,1.95A11,11,0,0,0,149.3,407c.68.77,3.15,1.18,3.15,1.18,1.74,3.1,6.17,6,6.17,6A1.42,1.42,0,0,0,158.22,413.23Z" style="opacity:0.2"></path><path d="M166.9,396.6l-2-.59c-2.87,7.7-10,12.61-17.38,11.37-8.5-1.44-14.05-10.56-12.39-20.38s9.89-16.6,18.4-15.16c5.64,1,10,5.28,11.77,11h0s7.37,5.08,7.39,6.84Z" style="fill:#C53F3F"></path><path d="M172.67,389.63c0-1.76-7.39-6.84-7.39-6.84h0c-1.8-5.67-6.13-10-11.77-11-8.51-1.44-16.74,5.35-18.4,15.17l0,.11a19.24,19.24,0,0,0,3.08,14.24,14.81,14.81,0,0,0,6.24,5.11,13.43,13.43,0,0,0,3.09.91c6.72,1.13,13.27-2.87,16.55-9.45.3-.62.58-1.26.83-1.92l2,.59Z" style="fill:#fff;opacity:0.2"></path><path d="M145.56,402c-.5-2.65-5.53-1.26-7.39-.65a14.81,14.81,0,0,0,6.24,5.11A6.07,6.07,0,0,0,145.56,402Z" style="opacity:0.2"></path><path d="M164.88,396a5.85,5.85,0,0,1-4.38-3.43s.67,4,3.55,5.35C164.35,397.31,164.63,396.67,164.88,396Z" style="opacity:0.2"></path><path d="M165.28,382.79h0c-1.8-5.67-6.13-10-11.77-11-8.51-1.44-16.74,5.35-18.4,15.17l0,.11c2.21-6.12,7.3-11.6,13.73-12.9,8.08-1.65,10.72,3.38,10.72,3.38a4.68,4.68,0,0,0-3.83,2.84C159.82,379.63,165.28,382.79,165.28,382.79Z" style="opacity:0.2"></path><path d="M166.9,396.6c1.67.28,5.73-4.3,5.77-7s-9.25-4.85-10.61-2.48C161.11,388.81,165,396.27,166.9,396.6Z" style="fill:#C53F3F"></path><path d="M166.9,396.6c1.67.28,5.73-4.3,5.77-7s-9.25-4.85-10.61-2.48C161.11,388.81,165,396.27,166.9,396.6Z" style="fill:#fff;opacity:0.6000000000000001"></path><path d="M167.05,389.69c-.06-.88-.49-1.57-.94-1.54s-.79.78-.72,1.66.48,1.56.94,1.53S167.11,390.57,167.05,389.69Z" style="opacity:0.30000000000000004"></path><path d="M169.21,390.28c-.22.86,0,1.64.42,1.75s1-.49,1.19-1.35,0-1.64-.42-1.75S169.42,389.43,169.21,390.28Z" style="opacity:0.30000000000000004"></path><path d="M152.77,391.27c.17-1-.18-1.86-.78-2s-1.22.61-1.39,1.59.19,1.86.79,2S152.61,392.25,152.77,391.27Z" style="fill:#263238"></path><path d="M135.84,395.26s-2,9.6,3.28,16.09c0,0,1.13.62,1-1.12,0,0,4.45-4.8,5.81-8.06S135.84,395.26,135.84,395.26Z" style="fill:#C53F3F"></path><path d="M135.84,395.26s-2,9.6,3.28,16.09c0,0,1.13.62,1-1.12,0,0,4.45-4.8,5.81-8.06S135.84,395.26,135.84,395.26Z" style="fill:#fff;opacity:0.2"></path><path d="M139.64,408.92s-1.65-5.85-.57-11.05c0,0,4.18,1.62,5.3,5.1A18.68,18.68,0,0,1,139.64,408.92Z" style="fill:#C53F3F"></path><path d="M120.44,365.48a15.12,15.12,0,0,0,8.27,1.39h0c.6-.05,1.19-.11,1.75-.19l.8-.13c.65-.11,1.26-.24,1.81-.37l.64-.15.75-.21.08,0,.35-.1.38-.11.17-.06.51-.17,0,0,.2-.07-1.07-14c-3.88-4.11-10.48-3.56-10.48-3.56Z" style="fill:#C53F3F"></path><path d="M120.44,365.48a15.12,15.12,0,0,0,8.27,1.39h0c.6-.05,1.19-.11,1.75-.19l.8-.13c.65-.11,1.26-.24,1.81-.37l.64-.15.75-.21.08,0,.35-.1.38-.11.17-.06.51-.17,0,0,.2-.07-1.07-14c-3.88-4.11-10.48-3.56-10.48-3.56Z" style="fill:#fff;opacity:0.2"></path><path d="M125,349.12,133.5,352l-.3,11.65a9.79,9.79,0,0,1-4.48,3.21c.6-.05,1.19-.11,1.75-.19l.8-.13c.65-.11,1.26-.24,1.81-.37l.64-.15.75-.21.08,0,.35-.1.38-.11.17-.06c.21-.06.38-.12.51-.17l0,0,.2-.06h0l-1.07-14c-3.88-4.11-10.48-3.56-10.48-3.56l-4.21,17.81Z" style="opacity:0.2"></path><path d="M128.94,412.39l-.68.11.71-.1Z" style="fill:#fff"></path><path d="M52.5,407.16l3.59,1.91L67,407.88s-4.78-2.48-8-2.51Z" style="fill:#C53F3F"></path><path d="M52.5,408.08l2.8.06,2,.93L67,408.8s-4.78-2.48-8-2.51Z" style="fill:#fff;opacity:0.2"></path><path d="M164.88,414.15l3.8.53,8.09-1.8-3.66-1.69S167.24,411.65,164.88,414.15Z" style="fill:#C53F3F"></path><path d="M164.88,414.15H169l5.61-1.75-1.45-1.21S167.24,411.65,164.88,414.15Z" style="fill:#fff;opacity:0.2"></path><path d="M118.45,413.59l-3.68,1.09-8.27-.56,3.37-2.22S115.74,411.47,118.45,413.59Z" style="fill:#C53F3F"></path><path d="M118.45,413.59l-4,.61-5.81-.88,1.26-1.42S115.74,411.47,118.45,413.59Z" style="fill:#fff;opacity:0.2"></path><path d="M90.76,410.46c0-.37-1.68-.67-3.76-.67s-3.76.3-3.76.67v.74c0,.37,1.68.66,3.76.66s3.76-.29,3.76-.66Z" style="fill:#263238"></path><path d="M90.76,410.46c0-.37-1.68-.67-3.76-.67s-3.76.3-3.76.67v.74c0,.37,1.68.66,3.76.66s3.76-.29,3.76-.66Z" style="fill:#fff;opacity:0.4"></path><path d="M90.76,410.46c0,.36-1.68.66-3.76.66s-3.76-.3-3.76-.66,1.68-.67,3.76-.67S90.76,410.09,90.76,410.46Z" style="fill:#fff;opacity:0.2"></path><path d="M90,410.41a.09.09,0,0,1,0,.06,7.22,7.22,0,0,0-3-.38,7.22,7.22,0,0,0-3,.38.09.09,0,0,1,0-.06c0-.23,1.36-.42,3-.42S90,410.18,90,410.41Z" style="opacity:0.2"></path><path d="M90,410.47a7.76,7.76,0,0,1-3,.36,7.76,7.76,0,0,1-3-.36,7.22,7.22,0,0,1,3-.38A7.22,7.22,0,0,1,90,410.47Z" style="fill:#fff;opacity:0.2"></path><path d="M102.78,403.43c-.1-.35-1.8-.21-3.81.32s-3.56,1.24-3.47,1.6l.19.71c.09.36,1.8.22,3.81-.31s3.56-1.25,3.47-1.6C102.93,404,102.81,403.56,102.78,403.43Z" style="fill:#263238"></path><path d="M102.78,403.43c-.1-.35-1.8-.21-3.81.32s-3.56,1.24-3.47,1.6l.19.71c.09.36,1.8.22,3.81-.31s3.56-1.25,3.47-1.6C102.93,404,102.81,403.56,102.78,403.43Z" style="fill:#fff;opacity:0.4"></path><path d="M102.78,403.43c.09.35-1.46,1.07-3.47,1.6s-3.72.67-3.81.32,1.46-1.07,3.47-1.6S102.68,403.08,102.78,403.43Z" style="fill:#fff;opacity:0.2"></path><path d="M102.05,403.57a.07.07,0,0,1,0,.06,7.44,7.44,0,0,0-3,.4,7.24,7.24,0,0,0-2.8,1.13.07.07,0,0,1,0-.05c-.06-.22,1.2-.75,2.81-1.17S102,403.34,102.05,403.57Z" style="opacity:0.2"></path><path d="M102,403.63a7.64,7.64,0,0,1-2.81,1.12,7.49,7.49,0,0,1-3,.41A7.24,7.24,0,0,1,99,404,7.44,7.44,0,0,1,102,403.63Z" style="fill:#fff;opacity:0.2"></path></g><g id="freepik--Bills--inject-1"><path d="M346.5,391.92c-6.74,5.49-38.47,13.59-53.15,3s2.44-26.82,14.21-24.64l2.82-8.83s-11.4-3-20.38,5-7.54,27.89-.19,35.73,16.32,14.81,34.53,7.43S346.5,391.92,346.5,391.92Z" style="fill:#263238"></path><path d="M346.5,391.92s-4,10.37-22.17,17.75-27.16.4-34.52-7.43c-5.62-6-7.78-19-4.49-28.35-1.15,7,.5,12.45,3.81,16.66l0,0a15,15,0,0,0,4.2,4.37,21,21,0,0,0,3.45,2C312.5,404.36,340.25,397,346.5,391.92Z" style="fill:#fff;isolation:isolate;opacity:0.8"></path><path d="M310.38,361.47l-2.82,8.83c-10.23-1.89-24.49,10.13-18.43,20.25-3.31-4.21-5-9.65-3.81-16.66a17.33,17.33,0,0,1,4.68-7.38C299,358.49,310.38,361.47,310.38,361.47Z" style="fill:#fff;isolation:isolate;opacity:0.7000000000000001"></path><path d="M278.57,406.78c6.71.26,23.74-20.44,38.13-26.83s31.3-1.17,32,9.17-8.46,17.66-8.46,17.66,5.36-8.89-.58-15.25-11.52-7.63-19.74-1.72-19.06,22.78-30.12,23S278.57,406.78,278.57,406.78Z" style="fill:#263238"></path><path d="M278.57,406.78c6.71.26,23.74-20.44,38.13-26.83s31.3-1.17,32,9.17-8.46,17.66-8.46,17.66,5.36-8.89-.58-15.25-11.52-7.63-19.74-1.72-19.06,22.78-30.12,23S278.57,406.78,278.57,406.78Z" style="fill:#fff;isolation:isolate;opacity:0.7000000000000001"></path><path d="M261.05,410.08c-7.49-7.73.45-17.13,17.77-18.11s51.4,9,59.1,21.13-2.87,6.32-2.87,6.32S315.1,405.48,295,402.05s-29.52,5.16-26.15,11.95S261.05,410.08,261.05,410.08Z" style="fill:#263238"></path><path d="M261.05,410.08c-7.49-7.73.45-17.13,17.77-18.11s51.4,9,59.1,21.13-2.87,6.32-2.87,6.32S315.1,405.48,295,402.05s-29.52,5.16-26.15,11.95S261.05,410.08,261.05,410.08Z" style="fill:#fff;isolation:isolate;opacity:0.8"></path><path d="M319.2,407.2c8.42,1.76,9.82,11.93,7.14,18.17,0,0-23-4.89-31.76-3.59C294.58,421.78,306.19,404.47,319.2,407.2Z" style="fill:#263238"></path><path d="M319.2,407.2c8.42,1.76,9.82,11.93,7.14,18.17,0,0-23-4.89-31.76-3.59C294.58,421.78,306.19,404.47,319.2,407.2Z" style="fill:#fff;isolation:isolate;opacity:0.7000000000000001"></path><path d="M320.74,407.06h0a6.33,6.33,0,0,0-1.54.13c-11,2.21-13.12,21-27.26,20.41-8.53-.38-9.5-5.95-11.3-11,4.08-3.54,7.26-12.32,14.81-11.95C304.14,405.08,320.74,407.06,320.74,407.06Z" style="fill:#263238"></path><path d="M320.74,407.06h0a6.33,6.33,0,0,0-1.54.13c-11,2.21-13.12,21-27.26,20.41-8.53-.38-9.5-5.95-11.3-11,4.08-3.54,7.26-12.32,14.81-11.95C304.14,405.08,320.74,407.06,320.74,407.06Z" style="fill:#fff;isolation:isolate;opacity:0.9"></path><g style="opacity:0.30000000000000004"><path d="M280.35,425.52c7.66.11,16.7-.47,16.82-.48a.32.32,0,0,0,.28-.24.17.17,0,0,0-.19-.21c-.16,0-16.55,1-23.8,0a.32.32,0,0,0-.32.2.2.2,0,0,0,.17.27A62,62,0,0,0,280.35,425.52Z"></path></g><g style="opacity:0.30000000000000004"><path d="M284.26,422.17c6.93.14,16.38,0,16.5,0a.32.32,0,0,0,.29-.23.17.17,0,0,0-.16-.23h0c-.16,0-16.72.17-22-.29a.29.29,0,0,0-.31.22.19.19,0,0,0,.18.26C280,422.05,282,422.12,284.26,422.17Z"></path></g><g style="opacity:0.30000000000000004"><path d="M297.36,419.17c3.36.09,5.95.11,6.22.11a.31.31,0,0,0,.3-.23.17.17,0,0,0-.16-.24h0c-.17,0-18.41-.14-22.27-1.51a.31.31,0,0,0-.35.15.22.22,0,0,0,.1.32C283.66,418.64,291.66,419,297.36,419.17Z"></path></g><g style="opacity:0.30000000000000004"><path d="M305.37,415.72a.34.34,0,0,0,.31-.23c0-.14,0-.25-.16-.25s-19.26-.84-21.69-1.41a.32.32,0,0,0-.34.19.21.21,0,0,0,.13.31c2.48.57,21,1.36,21.75,1.39Z"></path></g><g style="opacity:0.30000000000000004"><path d="M308.16,412.31a.34.34,0,0,0,.31-.23.18.18,0,0,0-.15-.26c-.18,0-18.91-1.38-21.18-1.66a.32.32,0,0,0-.33.22.21.21,0,0,0,.17.29c2.28.29,21,1.63,21.18,1.64Z"></path></g><g style="opacity:0.30000000000000004"><path d="M311.76,408.94a.34.34,0,0,0,.32-.23c0-.14,0-.26-.15-.27s-19.08-1.3-21.6-1.51a.31.31,0,0,0-.32.24.21.21,0,0,0,.18.28c2.51.21,21.39,1.48,21.57,1.49Z"></path></g><path d="M271.18,408.61l-12.5-1v5.13h-4a5.38,5.38,0,0,1,.27.89c1.1,5.56,2.48,12.12,12.42,13.39a150.26,150.26,0,0,0,27.64.46C280.09,426.78,285.45,409.78,271.18,408.61Z" style="fill:#263238"></path><path d="M271.18,408.61l-12.5-1v5.13h-4a5.38,5.38,0,0,1,.27.89c1.1,5.56,2.48,12.12,12.42,13.39a150.26,150.26,0,0,0,27.64.46C280.09,426.78,285.45,409.78,271.18,408.61Z" style="fill:#fff;isolation:isolate;opacity:0.7000000000000001"></path><path d="M274.32,409h0a6.33,6.33,0,0,0-1.54.13c-11,2.21-13.12,21-27.26,20.4-8.53-.38-9.5-5.95-11.3-11,4.08-3.54,7.26-12.32,14.81-12C257.72,407,274.32,409,274.32,409Z" style="fill:#263238"></path><path d="M274.32,409h0a6.33,6.33,0,0,0-1.54.13c-11,2.21-13.12,21-27.26,20.4-8.53-.38-9.5-5.95-11.3-11,4.08-3.54,7.26-12.32,14.81-12C257.72,407,274.32,409,274.32,409Z" style="fill:#fff;isolation:isolate;opacity:0.9"></path><g style="opacity:0.30000000000000004"><path d="M233.93,427.42c7.66.11,16.7-.46,16.82-.47a.33.33,0,0,0,.28-.24.17.17,0,0,0-.19-.21c-.16,0-16.55,1-23.79,0a.31.31,0,0,0-.33.2.21.21,0,0,0,.17.27A59.94,59.94,0,0,0,233.93,427.42Z"></path></g><g style="opacity:0.30000000000000004"><path d="M237.84,424.08c6.93.14,16.38,0,16.5,0a.33.33,0,0,0,.29-.24.16.16,0,0,0-.16-.22h0c-.16,0-16.72.18-22-.28a.29.29,0,0,0-.31.21.2.2,0,0,0,.18.27C233.62,424,235.59,424,237.84,424.08Z"></path></g><g style="opacity:0.30000000000000004"><path d="M250.94,421.08c3.36.09,5.95.11,6.22.11a.32.32,0,0,0,.3-.23.17.17,0,0,0-.16-.24h0c-.18,0-18.42-.14-22.28-1.52a.33.33,0,0,0-.35.16.21.21,0,0,0,.1.31C237.24,420.55,245.24,420.92,250.94,421.08Z"></path></g><g style="opacity:0.30000000000000004"><path d="M259,417.62a.32.32,0,0,0,.31-.23.18.18,0,0,0-.16-.25c-.19,0-19.25-.83-21.69-1.4a.3.3,0,0,0-.34.19.2.2,0,0,0,.13.3c2.48.58,21,1.36,21.75,1.39Z"></path></g><g style="opacity:0.30000000000000004"><path d="M261.74,414.22a.34.34,0,0,0,.31-.23c.05-.14,0-.26-.15-.26s-18.91-1.38-21.18-1.67a.34.34,0,0,0-.33.23.21.21,0,0,0,.17.29c2.28.28,21,1.62,21.18,1.64Z"></path></g><g style="opacity:0.30000000000000004"><path d="M265.34,410.85a.35.35,0,0,0,.32-.23c0-.14,0-.26-.15-.27s-19.08-1.3-21.59-1.52a.32.32,0,0,0-.33.25.21.21,0,0,0,.18.28c2.51.21,21.39,1.48,21.57,1.49Z"></path></g><path d="M224.76,410.52l-28.62-2.35s11.2,1.5,12.36,7.34c1.1,5.56,2.48,12.12,12.42,13.39a150.26,150.26,0,0,0,27.64.46C233.67,428.69,239,411.69,224.76,410.52Z" style="fill:#263238"></path><path d="M224.76,410.52l-28.62-2.35s11.2,1.5,12.36,7.34c1.1,5.56,2.48,12.12,12.42,13.39a150.26,150.26,0,0,0,27.64.46C233.67,428.69,239,411.69,224.76,410.52Z" style="fill:#fff;isolation:isolate;opacity:0.7000000000000001"></path><path d="M177.14,427.07s18.8,3.15,32.91,1.75c0,0,5.57-16.79,14.71-18.3l-28.85-3c-6.46-.68-12.69,2.41-15.54,7.65A23.94,23.94,0,0,0,177.14,427.07Z" style="fill:#263238"></path><path d="M177.14,427.07s18.8,3.15,32.91,1.75c0,0,5.57-16.79,14.71-18.3l-28.86-3c-6.27-.65-12.47,2.2-15.32,7.26A24.21,24.21,0,0,0,177.14,427.07Z" style="fill:#fff;isolation:isolate;opacity:0.9"></path><g style="opacity:0.30000000000000004"><path d="M200.31,422.47c.25-.84,1.12-1.27,2.54-1.19l2.65.13L204,426.15l-2.46-.08c-1.27-.05-1.84-.55-1.6-1.32a1.58,1.58,0,0,1,1.07-1A.92.92,0,0,1,200.31,422.47Zm.78.1c-.17.56.22.83,1.11.88l1.81.08c.17-.53.34-1.06.52-1.6q-.92,0-1.83-.09C201.82,421.8,201.27,422,201.09,422.57Zm2.26,3c.16-.5.33-1,.49-1.5l-1.62-.07c-.81,0-1.35.2-1.51.7s.22.78,1,.82Z"></path><path d="M198,425.9l-.8,0c.49-1.6,1-3.22,1.47-4.85l.8.06Q198.73,423.52,198,425.9Z"></path><path d="M195.55,425.75l-.79-.06,1.25-4.27c-1-.09-2-.18-3-.29l.17-.62c1.29.13,2.57.25,3.86.36Z"></path><path d="M190.82,425.37l-.8-.08c.4-1.43.81-2.88,1.21-4.34l-3.07-.37c.06-.21.12-.42.17-.63,1.3.16,2.59.32,3.89.46Z"></path><path d="M187.82,420.49l-.45.53a2.81,2.81,0,0,0-1.72-.85c-1-.14-1.51.14-1.62.6-.33,1.26,3.32.93,2.83,2.79-.21.77-1.06,1.35-2.55,1.17a3.24,3.24,0,0,1-1.7-.69l.41-.54a2.92,2.92,0,0,0,1.45.62c1,.12,1.47-.19,1.59-.63.32-1.22-3.33-.91-2.85-2.8.2-.79,1.08-1.36,2.6-1.15A3.33,3.33,0,0,1,187.82,420.49Z"></path><path d="M212.38,419.48a.3.3,0,0,0,.31-.23.23.23,0,0,0-.23-.28c-.22,0-23.75-1.85-30.18-3.18a.33.33,0,0,0-.38.21.29.29,0,0,0,.25.34c6.46,1.32,30,3.12,30.21,3.14Z"></path><path d="M214.46,416.39a.3.3,0,0,0,.31-.24.24.24,0,0,0-.23-.29c-.21,0-22.31-1.87-30.5-3.18a.32.32,0,0,0-.37.23.31.31,0,0,0,.27.33c8.21,1.3,30.29,3.13,30.5,3.15Z"></path><path d="M217.32,413.08a.31.31,0,0,0,.32-.24.25.25,0,0,0-.22-.3l-29-2.84a.3.3,0,0,0-.34.26.3.3,0,0,0,.28.32l28.93,2.8Z"></path><path d="M221.32,410.85c.15,0,.28,0,.3-.11s-.08-.15-.23-.16-13.32-1.42-25.93-2.72c-.19,0-.33,0-.35.11s.11.16.28.18c12.61,1.29,25.78,2.68,25.91,2.69Z"></path></g><path d="M316.53,404.3c7.33,1.88,8.51,11,12.28,17.71l-10.4-3.1-3-2.88s6.29,13-8.63,13.54S304.52,401.22,316.53,404.3Z" style="fill:#263238"></path><path d="M316.53,404.3c7.33,1.88,8.51,11,12.28,17.71l-10.4-3.1-3-2.88s6.29,13-8.63,13.54S304.52,401.22,316.53,404.3Z" style="fill:#fff;isolation:isolate;opacity:0.8"></path><path d="M307.56,429.54c3.4,0,7.61-.19,11.78-.53,5.58-.43,11.08-1.06,14.45-1.46,2-.25,3.31-.42,3.31-.42,6-4,1.57-12.47,1.57-12.47-3.32-.91-8.57-.67-13.24-.17-5.38.59-10,1.54-10,1.54S321.51,428.59,307.56,429.54Z" style="fill:#263238"></path><path d="M307.56,429.54c3.4,0,7.61-.19,11.78-.53,5.58-.43,11.08-1.06,14.45-1.46,2-.25,3.31-.42,3.31-.42,6-4,1.57-12.47,1.57-12.47-3.32-.91-8.57-.67-13.24-.17-5.38.59-10,1.54-10,1.54S321.51,428.59,307.56,429.54Z" style="fill:#fff;isolation:isolate;opacity:0.7000000000000001"></path><path d="M314.75,404.06h0a7.26,7.26,0,0,1,1.79.23c12,3.07,7.49,25.65,24.94,25,10-.36,12.53-7,15.69-12.72-3.55-4.08-4.82-13.52-12.91-13.59C334.62,402.92,314.75,404.06,314.75,404.06Z" style="fill:#263238"></path><path d="M314.75,404.06h0a7.26,7.26,0,0,1,1.79.23c12,3.07,7.49,25.65,24.94,25,10-.36,12.53-7,15.69-12.72-3.55-4.08-4.82-13.52-12.91-13.59C334.62,402.92,314.75,404.06,314.75,404.06Z" style="fill:#fff;isolation:isolate;opacity:0.9"></path><g style="opacity:0.30000000000000004"><path d="M355.39,426.93c-8.72,0-19.14-.87-19.28-.88a.29.29,0,0,1-.25-.31.27.27,0,0,1,.3-.25c.18,0,18.8,1.57,27,.51a.28.28,0,0,1,.31.24.28.28,0,0,1-.24.32A65.88,65.88,0,0,1,355.39,426.93Z"></path></g><g style="opacity:0.30000000000000004"><path d="M351.86,422.86c-7.9,0-18.91-.36-19.06-.37a.27.27,0,0,1-.26-.29.27.27,0,0,1,.27-.27h0c.19,0,19.21.64,25.14.24a.28.28,0,0,1,0,.56C356.56,422.83,354.37,422.86,351.86,422.86Z"></path></g><g style="opacity:0.30000000000000004"><path d="M337.81,419c-3.95,0-7-.06-7.34-.07a.28.28,0,0,1,0-.56h0c.21,0,21.11.44,25.66-1a.29.29,0,0,1,.35.18.3.3,0,0,1-.18.36C353.41,418.79,344.39,419,337.81,419Z"></path></g><g style="opacity:0.30000000000000004"><path d="M329.63,414.64a.29.29,0,0,1-.28-.28.29.29,0,0,1,.28-.29c.22,0,22-.15,24.76-.68a.29.29,0,0,1,.32.23.28.28,0,0,1-.22.33c-2.82.53-24,.68-24.86.69Z"></path></g><g style="opacity:0.30000000000000004"><path d="M327.58,410.61a.27.27,0,0,1-.27-.27.27.27,0,0,1,.26-.29c.22,0,21.65-.59,24.16-.79a.27.27,0,0,1,.3.26.28.28,0,0,1-.25.3c-2.53.2-24,.79-24.19.79Z"></path></g><g style="opacity:0.30000000000000004"><path d="M324.61,406.66a.28.28,0,0,1,0-.56c.22,0,21.77-.35,24.52-.43a.27.27,0,0,1,.29.27.29.29,0,0,1-.27.29c-2.75.09-24.32.43-24.53.43Z"></path></g><path d="M368.58,408.41l27.48-1s-10.43,1-12.16,6.86-4,13.26-14.59,14.62c-14.95,1.9-31.39.19-31.39.19C355.37,428.47,353.63,408.94,368.58,408.41Z" style="fill:#263238"></path><path d="M368.58,408.41l27.48-1s-10.43,1-12.16,6.86-4,13.26-14.59,14.62c-14.95,1.9-31.39.19-31.39.19C355.37,428.47,353.63,408.94,368.58,408.41Z" style="fill:#fff;isolation:isolate;opacity:0.8"></path><path d="M412.65,427.42s-17.86,3.29-31.91,1.52c0,0-3.34-18.56-12.16-20.53l27.73-1.64a14,14,0,0,1,13.53,8.16A28.54,28.54,0,0,1,412.65,427.42Z" style="fill:#263238"></path><path d="M412.65,427.42s-17.86,3.29-31.91,1.52c0,0-3.34-18.56-12.16-20.53l27.73-1.64a13.84,13.84,0,0,1,13.34,7.75A28.7,28.7,0,0,1,412.65,427.42Z" style="fill:#fff;isolation:isolate;opacity:0.9"></path><g style="opacity:0.30000000000000004"><path d="M401.35,421.13c-.19-.87.38-1.43,1.7-1.57l2.51-.29c.37,1.68.75,3.36,1.12,5-.78.11-1.56.2-2.35.29-1.21.14-2-.28-2.17-1.1a1.07,1.07,0,0,1,.45-1.2A1.46,1.46,0,0,1,401.35,421.13Zm.77,0c.13.58.64.8,1.47.71l1.72-.2c-.12-.56-.25-1.13-.37-1.69l-1.72.2C402.38,420.23,402,420.53,402.12,421.12Zm3.68,2.71-.36-1.62-1.53.18c-.77.09-1.14.41-1,.94s.61.77,1.38.68Z"></path><path d="M401,425l-.75.07c-.37-1.7-.75-3.4-1.12-5.09l.75-.07C400.26,421.57,400.64,423.26,401,425Z"></path><path d="M398.69,425.16l-.75.06-1-4.47-2.84.19c-.05-.22-.09-.43-.14-.64,1.2-.07,2.39-.15,3.59-.24C397.94,421.77,398.31,423.47,398.69,425.16Z"></path><path d="M394.24,425.47l-.75,0-1-4.49c-.95,0-1.89.08-2.84.1-.05-.21-.1-.42-.14-.64,1.2,0,2.39-.08,3.59-.14C393.49,422.05,393.86,423.76,394.24,425.47Z"></path><path d="M389.32,421.08l-.15.58a3.35,3.35,0,0,0-1.86-.56c-.91,0-1.23.36-1.13.82.28,1.27,3.29.41,3.7,2.32.17.79-.31,1.49-1.68,1.53a3.6,3.6,0,0,1-1.79-.44l.12-.59a3.15,3.15,0,0,0,1.53.4c.89,0,1.19-.4,1.09-.85-.27-1.25-3.28-.41-3.69-2.32-.17-.8.32-1.48,1.71-1.49A3.71,3.71,0,0,1,389.32,421.08Z"></path><path d="M379.6,418.39a.29.29,0,0,1,0-.57c.23,0,22.75-1.17,28.55-2.31a.29.29,0,0,1,.11.56c-5.84,1.14-28.4,2.3-28.63,2.32Z"></path><path d="M378,415a.28.28,0,0,1-.28-.26.28.28,0,0,1,.27-.3c.21,0,21.33-1.09,28.71-2.08a.29.29,0,0,1,.31.24.28.28,0,0,1-.24.32c-7.4,1-28.54,2.07-28.75,2.08Z"></path><path d="M375.58,411.4a.28.28,0,0,1-.28-.26.28.28,0,0,1,.26-.3l27.29-1.58a.29.29,0,0,1,.3.26.28.28,0,0,1-.27.3L375.6,411.4Z"></path><path d="M372,408.91c-.15,0-.27-.05-.28-.13s.1-.14.26-.15,13.05-.8,24.75-1.47c.17,0,.29,0,.3.12s-.1.15-.26.16c-11.7.67-24.62,1.46-24.75,1.47Z"></path></g></g><g id="freepik--speech-bubble--inject-1"><path d="M344.4,77.24a35.77,35.77,0,0,0-38.11,57.63l-5.84,11L312,140a35.77,35.77,0,1,0,32.45-62.8Z" style="fill:#C53F3F"></path><path d="M344.4,77.24a35.77,35.77,0,0,0-38.11,57.63l-5.84,11L312,140a35.77,35.77,0,1,0,32.45-62.8Z" style="fill:#fff;isolation:isolate;opacity:0.7000000000000001"></path><path d="M335.36,128.29v5.36h-3.92v-5.31c-4.69-.29-9.23-1.82-11.72-4l2.15-4.83a18.47,18.47,0,0,0,9.57,3.64v-9.57c-5.31-1.29-11-3-11-9.66,0-4.88,3.54-9.13,11-9.85V88.69h3.92V94a20.56,20.56,0,0,1,9.71,2.92l-2,4.83a19.78,19.78,0,0,0-7.75-2.58v9.66c5.31,1.29,11.09,3,11.09,9.61C346.45,123.32,342.87,127.53,335.36,128.29Zm-3.92-20.47V99.31c-3.4.53-4.83,2.25-4.83,4.35C326.61,106,328.66,107,331.44,107.82Zm8.89,11.05c0-2.34-2.1-3.44-5-4.25v8.46C338.85,122.55,340.33,120.93,340.33,118.87Z" style="fill:#263238"></path><path d="M333.09,140.59a29.42,29.42,0,1,1,20.8-8.62h0A29.23,29.23,0,0,1,333.09,140.59Zm0-54.58a25.16,25.16,0,1,0,17.79,7.37A25,25,0,0,0,333.09,86Z" style="fill:#C53F3F"></path><rect x="305.8" y="109.04" width="54.58" height="4.26" transform="translate(18.95 268.09) rotate(-45)" style="fill:#C53F3F"></rect></g><g id="freepik--Character--inject-1"><polygon points="373.94 343.63 360.6 343.63 359.5 344.56 313.35 278.73 219.95 254.94 179.34 159.46 110.76 107.74 77.92 107.74 57.92 171.21 120.31 198.57 175.28 285.88 283.24 305.45 337.08 363.52 327.03 372.02 365.82 383.85 375.99 383.85 373.94 343.63" style="fill:#C53F3F"></polygon><polygon points="373.94 343.63 360.6 343.63 359.5 344.56 313.35 278.73 219.95 254.94 179.34 159.46 110.76 107.74 77.92 107.74 57.92 171.21 120.31 198.57 175.28 285.88 283.24 305.45 337.08 363.52 327.03 372.02 365.82 383.85 375.99 383.85 373.94 343.63" style="fill:#fff;isolation:isolate;opacity:0.25"></polygon><polygon points="365.82 383.85 360.6 343.63 351.51 351.31 294.91 278.73 199.64 254.94 151.52 159.46 77.92 107.74 57.92 171.21 120.31 198.57 175.28 285.88 283.24 305.45 337.08 363.52 327.03 372.02 365.82 383.85" style="fill:#C53F3F"></polygon><polygon points="179.34 159.46 151.52 159.46 77.92 107.74 110.76 107.74 179.34 159.46" style="fill:#fff;isolation:isolate;opacity:0.25"></polygon><polygon points="199.64 254.94 219.95 254.94 313.35 278.73 294.91 278.73 199.64 254.94" style="fill:#fff;isolation:isolate;opacity:0.25"></polygon><path d="M251.38,185.93a118.64,118.64,0,0,1-6.27,18.48c-2.2,4.8-4.55,9.73-8.82,13.51-10.36,8.67-19.14-5.38-23-13.66a117.29,117.29,0,0,1-6.81-18,2.55,2.55,0,0,1,4.76-1.77c2.7,5.47,5.63,11,8.78,16.08,2.29,3.6,4.64,7.24,7.75,9.87a3.74,3.74,0,0,0,1.76.94s-.26,0-.15-.07c3.07-2.62,4.68-6.95,6.42-10.85a172.86,172.86,0,0,0,5.68-17.19c2-6.36,11.34-3.87,9.9,2.66Z" style="fill:#b97864"></path><path d="M242.14,140.12c-.82-3.29,5.74-7.48,9.35-5.46s6.53,4.65,11.11,3.25,9.09-.15,9.24,5-1.7,7.9,2.17,9.14,7.13,6.38,5.11,9.08-4.64,5.62-2.32,6.4,4.18,5.28,1.24,6.37,2.63,3.71-.31,8-23.06,15.34-30.35,12.4-8.15-5.65-6.95-9.64-2.52-4.66-3.76-9,0-6,0-6-4,3.9-1.55,6,3.41,4.36,1.55,6.53-.15,4.89-.15,4.89a2.63,2.63,0,0,1-2.2-2.44c-.13-2.14,2.51-4.41-.59-7s-4.34-5.37-2.17-8.16.62-4.94-.31-8.43,0-7.84,3.1-9.08c0,0-3.72-2.79-.78-7.28S242.14,140.12,242.14,140.12Z" style="fill:#263238"></path><path d="M229.15,176.74a.31.31,0,0,1-.19-.06,3.89,3.89,0,0,1-1.63-2.85,4.43,4.43,0,0,1,1.61-3.32c1.68-1.56,2.66-4.26,1.27-6.41s-2.25-6.59,0-10a5.1,5.1,0,0,1,5.23-2.56.3.3,0,0,1-.14.59c-.11,0-2.65-.6-4.59,2.31-2.08,3.13-1.23,7.41,0,9.32,1.38,2.14.81,5.15-1.37,7.17a3.82,3.82,0,0,0-1.41,2.86,3.29,3.29,0,0,0,1.39,2.39.29.29,0,0,1,0,.42A.28.28,0,0,1,229.15,176.74Z" style="fill:#263238"></path><path d="M276.82,147.39h0c-.86,0-3-.63-4.54-6.3-1.45-5.39-5.41-4.69-9.24-4a12.31,12.31,0,0,1-4.37.3,11.08,11.08,0,0,1-3.58-1.69c-2.31-1.43-4.71-2.92-9.17-1.27-2.15.79-3.4,1.84-3.7,3.11a4.09,4.09,0,0,0,1,3.27.31.31,0,0,1,0,.43.3.3,0,0,1-.43,0,4.67,4.67,0,0,1-1.16-3.83c.35-1.48,1.73-2.67,4.08-3.54,4.74-1.75,7.37-.12,9.7,1.33a11,11,0,0,0,3.39,1.61,12.07,12.07,0,0,0,4.13-.31c3.72-.66,8.34-1.48,9.94,4.45,1.32,4.91,3,5.71,3.72,5.83a1.08,1.08,0,0,0,.75-.11.25.25,0,0,1,0-.22.29.29,0,0,1,.41-.1.4.4,0,0,1,.19.46A1.17,1.17,0,0,1,276.82,147.39Z" style="fill:#263238"></path><path d="M279.38,167.38a.31.31,0,0,1-.13,0,1.74,1.74,0,0,1-1-1.48,5.6,5.6,0,0,1,2-4.14,4.22,4.22,0,0,0,.79-3.58c-.29-1.62-1.44-3.8-5.28-5-3.11-.93-4.93-2.14-5.42-3.59a2.3,2.3,0,0,1,.24-2,.31.31,0,0,1,.43-.06.3.3,0,0,1,.06.42,1.67,1.67,0,0,0-.15,1.43c.3.86,1.4,2.11,5,3.19,4.35,1.31,5.44,4,5.7,5.44.32,1.8-.26,3.61-1,4.17a5,5,0,0,0-1.74,3.59,1.14,1.14,0,0,0,.65,1,.3.3,0,0,1,.15.4A.32.32,0,0,1,279.38,167.38Z" style="fill:#263238"></path><path d="M244.5,179.16c-6,2.75-7.83,16-10.46,22.84l10.56,5.63,9.31-15.34Z" style="fill:#C53F3F"></path><path d="M253.91,192.29l-8.2,13.52-1.1,1.82L234,202c2.63-6.87,4.49-20.08,10.46-22.84l4.88,6.82Z" style="isolation:isolate;opacity:0.30000000000000004"></path><path d="M253.91,192.29l-8.2,13.52c-7.59-7-.41-17.34-.41-17.34.83-.17,3.4-2.55,4.08-2.49Z" style="isolation:isolate;opacity:0.2"></path><path d="M253.87,232.51l35.57-3.3c-1.11-3.78-2.09-7.5-2.92-11.09-1-4.37-1.87-8.58-2.53-12.49s-1.2-7.57-1.6-10.86c0-.32-.08-.63-.11-.94-.06-.52-.11-1-.17-1.52-.34-3.19-.57-6-.72-8.26-.3-4.48-.3-7.06-.3-7.06a74.39,74.39,0,0,0-36.59,2.17C239.22,194.06,253.87,232.51,253.87,232.51Z" style="fill:#C53F3F"></path><path d="M289.44,229.21l-35.57,3.3s-14.65-38.45-9.37-53.35A74.53,74.53,0,0,1,281.09,177s0,2.58.3,7.06c.15,2.28.38,5.06.72,8.25,0,.27.06.54.09.82s.06.47.08.71.07.62.11.94c.4,3.29.91,6.94,1.6,10.86.39,2.29.83,4.68,1.34,7.15q.54,2.63,1.19,5.34C287.35,221.71,288.32,225.42,289.44,229.21Z" style="isolation:isolate;opacity:0.30000000000000004"></path><path d="M285.33,212.78a6.86,6.86,0,0,1-1.48-.4C274,208.46,276,190.91,276,190.91a13.08,13.08,0,0,1,6.24,2.21c0,.23.06.47.08.71s.07.62.11.94c.4,3.29.91,6.94,1.6,10.86C284.38,207.92,284.82,210.31,285.33,212.78Z" style="isolation:isolate;opacity:0.2"></path><path d="M187.17,351.61c6.45-3,7.27-3.48,10.84-5.27,3.06-1.54,4-1.56,6.43-2.77,2.07-1,1.2-2.67-.36-4.33-.78-.84-2.24-2.69-3.43-4.08l-8,.72c-.32,2.79-3.58,10.38-7,12.48C182.32,350.38,184.6,352.81,187.17,351.61Z" style="fill:#263238"></path><path d="M254.4,228.46l-.64,6.73s-39.42,6-45.73,12.16-16.57,89.92-16.57,89.92h11s18.42-57,20.1-67.38c0,0,26.38,1,45.21,1s21.09-42.46,21.09-42.46Z" style="fill:#263238"></path><path d="M288.88,228.46s-2.24,42.45-21.08,42.45c-3.19,0-6.61,0-10.07-.08l-3,0-3.85-.07c-.93,0-1.87-.05-2.79-.06-9.93-.23-19-.54-23.12-.68h-.32l-2-.09h0c-.47,2.86-2.19,9.2-4.45,16.93-6,20.43-15.66,50.44-15.66,50.44h-11s10.26-83.75,16.57-89.91,45.73-12.17,45.73-12.17l.63-6.73Z" style="fill:#fff;opacity:0.30000000000000004"></path><path d="M259.61,237.84l-1.88,33h0c-1,0-2,0-3,0l-3.85-.07-2.79-.06c-10-.22-19-.52-23.12-.68h-.32l-2-.08c-.47,2.86-2.19,9.2-4.45,16.93,1.21-15.17,2.45-30.35,3.66-31.41C238.18,241.3,259.61,237.84,259.61,237.84Z" style="isolation:isolate;opacity:0.2"></path><path d="M275.14,198.82a12.65,12.65,0,0,1-3.71,1.51c-2.27.54-3.2-1.37-5-1.82s-1.57,1.15-1.57,1.15a27.78,27.78,0,0,1-.48-9.56,41.77,41.77,0,0,1,2.05-9.11l8.72-5.28h0a13.71,13.71,0,0,0-1,2,23,23,0,0,0-1.68,9.45A28.67,28.67,0,0,0,275.14,198.82Z" style="fill:#C53F3F"></path><path d="M275.13,175.71a13.71,13.71,0,0,0-1,2,30.75,30.75,0,0,0-5.6,7.39,16.06,16.06,0,0,1-4.2,5,41.77,41.77,0,0,1,2.05-9.11l8.72-5.28Z" style="isolation:isolate;opacity:0.2"></path><path d="M252.51,174.86c3-1.29,7.09-1.19,9,1.42s-4.65,9.53-7.63,7S250,176,252.51,174.86Z" style="fill:#C53F3F"></path><path d="M252.51,174.86c3-1.29,7.09-1.19,9,1.42s-4.65,9.53-7.63,7S250,176,252.51,174.86Z" style="isolation:isolate;opacity:0.2"></path><path d="M267.3,175.85l-1.71,2.93-1.39,2.39a7.07,7.07,0,0,1-12.26-.1h0a8.06,8.06,0,0,0,3.05-3,5.7,5.7,0,0,0,.62-2.79,7,7,0,0,0-.23-1.56,15.52,15.52,0,0,0-1.47-3.59l7-11h0l.24-.39,0,.32c.09,1.23.25,2.64.45,4.11h0a44.29,44.29,0,0,0,.9,4.62C263.49,171.37,265,174.68,267.3,175.85Z" style="fill:#b97964"></path><path d="M262.55,167.72c-1.42,4.29-3.76,8.8-7.56,10.32a5.7,5.7,0,0,0,.62-2.79,7,7,0,0,0-.23-1.56,15.52,15.52,0,0,0-1.47-3.59l7-11h0l.26-.07c.09,1.23.25,2.64.45,4.11h0A44.29,44.29,0,0,0,262.55,167.72Z" style="isolation:isolate;opacity:0.2"></path><path d="M252.51,174.86s1.13,5,5.08,4.3,8.91-6.39,11.77-6.7,3.41,1.71,3.41,1.71,2-.73,3.18,2c0,0-1.94.37-5,3.78s-8.76,10.92-15.81,8.83-4.47-9.42-4.47-9.42S249.76,176.22,252.51,174.86Z" style="fill:#C53F3F"></path><path d="M248,146.21c-8.23,2.07-9.76,7.15-8.23,15.78,1.92,10.79,6.17,17.73,15.89,12.87C268.82,168.26,261.63,142.76,248,146.21Z" style="fill:#b97964"></path><path d="M244.94,160.19a17.87,17.87,0,0,1-1.54,4,2.34,2.34,0,0,0,2.41.38Z" style="fill:#a24e3f"></path><path d="M249.8,158.24c.16.68.65,1.15,1.11,1s.69-.74.54-1.42-.65-1.15-1.1-1S249.65,157.56,249.8,158.24Z" style="fill:#263238"></path><path d="M250.54,156.82l-1.61-.25S250,157.65,250.54,156.82Z" style="fill:#263238"></path><path d="M241.32,160c.15.68.65,1.14,1.1,1s.69-.74.54-1.42-.65-1.15-1.1-1S241.16,159.35,241.32,160Z" style="fill:#263238"></path><path d="M242.06,158.6l-1.62-.25S241.46,159.43,242.06,158.6Z" style="fill:#263238"></path><path d="M239.13,157a.36.36,0,0,1-.35-.3.37.37,0,0,1,.29-.42,3.6,3.6,0,0,0,2.33-2.09.37.37,0,0,1,.49-.16.36.36,0,0,1,.16.49,4.29,4.29,0,0,1-2.86,2.47Z" style="fill:#263238"></path><path d="M249.93,154.65a4,4,0,0,1-2.81-1,.36.36,0,0,1,.51-.51,3.61,3.61,0,0,0,3.05.7.37.37,0,0,1,.41.31.36.36,0,0,1-.3.41A6.79,6.79,0,0,1,249.93,154.65Z" style="fill:#263238"></path><path d="M260.46,157.81s-5.56-5.79-6.29-11.16c0,0-18-2.55-14.62,14.21,0,0-5.3-14.3,8.77-18.2s19.22,16.82,13.47,24.83C261.79,167.49,263.91,161.44,260.46,157.81Z" style="fill:#263238"></path><path d="M259.55,159.89a3.72,3.72,0,0,1,3.06-4.28c2.62-.37,5.15,4.56-.87,7.42C260.87,163.44,260.13,162.68,259.55,159.89Z" style="fill:#b97964"></path><path d="M247.63,168.79a.28.28,0,0,1-.13,0,.35.35,0,0,1-.21-.46c1.38-3.5,5.24-2.9,5.28-2.89a.35.35,0,0,1,.29.41.36.36,0,0,1-.41.3c-.13,0-3.33-.5-4.49,2.44A.36.36,0,0,1,247.63,168.79Z" style="fill:#263238"></path><path d="M262.91,154.16c-4-9.93-21-15.57-24.35-2.44a15.78,15.78,0,0,1,3.83-8.63s14.62-7.48,20.82,9.63Z" style="fill:#C53F3F"></path><path d="M255,360.13c4.82-5.23,5.39-6,8-9,2.24-2.58,3.07-2.94,4.89-5,1.53-1.72.09-2.93-2-3.87-1-.48-3.09-1.63-4.72-2.46l-7.14,3.72c.77,2.7.64,11-1.74,14.22C250,360.84,253.07,362.22,255,360.13Z" style="fill:#263238"></path><path d="M288.89,228.46s12.18,18,5.55,32.87-39.84,8.14-39.84,8.14l8.57,70.94-9.28,4.17s-25-72.66-26-86.29,39.19-22.38,39.19-22.38Z" style="fill:#263238"></path><path d="M288.89,228.46s12.18,18,5.55,32.87-39.84,8.14-39.84,8.14l8.57,70.94-9.28,4.17s-25-72.66-26-86.29,39.19-22.38,39.19-22.38Z" style="fill:#fff;opacity:0.30000000000000004"></path><path d="M286.13,181.23a118,118,0,0,1,4.44,19c.67,5.23,1.27,10.66-.35,16.12-4.23,12.84-19.1,5.54-26.75.55a115,115,0,0,1-15.28-11.69,2.55,2.55,0,0,1,3.1-4c5.19,3.23,10.57,6.34,16,9,3.84,1.84,7.76,3.69,11.79,4.28a3.69,3.69,0,0,0,2-.13s-.23.13-.17,0c1.22-3.84.3-8.38-.29-12.6a171.43,171.43,0,0,0-4.25-17.6c-1.66-6.46,7.59-9.27,9.81-3Z" style="fill:#b97864"></path><path d="M251.51,235.51c-5.7,4.24-19.95,12.24-15.3,23.08s4.13,32.21-.83,41.35.82,25.11.82,25.11-18.66-2.16-27.34-.34c0,0-5-15.65-1.57-26.64s7-16,3.48-28.73-3.39-20.61,3.2-28.51,17.89-6.48,16.81-12.68-4.89-20.36-11.9-23c-15.46-5.87-15.83-17.54-19-22.65,3.4-2.23,7.09-.51,9.37-2.34,6.35-5.11,13.78-1.58,18,6.64s15.12,10,19.72,15.23S257.22,231.26,251.51,235.51Z" style="fill:#263238"></path><path d="M253.89,228.26c-.09,3.39-.8,6.07-2.38,7.25l-.14.12h0c-2.93,2.16-8,5.27-11.59,9.19-3.41,3.66-5.63,8.05-3.84,13.05.09.24.17.48.28.72,3.29,7.66,4,20.59,2.37,30.73a34.51,34.51,0,0,1-3.19,10.62,16.51,16.51,0,0,0-1.79,5.94c-1.14,8.8,2.6,19.17,2.6,19.17s-18.66-2.17-27.33-.35a66.38,66.38,0,0,1-2.77-17.34,31,31,0,0,1,1.19-9.29c.79-2.52,1.58-4.73,2.29-6.79,2.41-6.91,3.91-12.15,1.19-21.93a57.48,57.48,0,0,1-2.23-11.78,21.8,21.8,0,0,1,3-13.33,25.84,25.84,0,0,1,2.43-3.4c3-3.56,6.87-5.22,10.18-6.54,3.89-1.56,7-2.64,6.69-5.74,0-.14,0-.27-.06-.4-.88-5-3.46-14.94-8-20.15a11.38,11.38,0,0,0-2.34-2.09,8.36,8.36,0,0,0-1.54-.8c-14.65-5.56-15.74-16.32-18.51-21.78-.16-.31-.31-.6-.48-.87,3.39-2.23,7.08-.51,9.37-2.34,5.92-4.77,12.77-2,17.06,5,.31.51.62,1,.9,1.6,1.89,3.69,5.13,6.08,8.55,8.07,4.19,2.45,8.63,4.29,11.17,7.16,1.41,1.6,2.91,4.95,4.17,9C252.81,216.46,254.05,223.16,253.89,228.26Z" style="fill:#fff;isolation:isolate;opacity:0.8"></path><path d="M205.11,195.57l2.19,3.79a2.83,2.83,0,0,0,2.78,1.4l3.48-.39-3.88-7.25-3.64.53A1.29,1.29,0,0,0,205.11,195.57Z" style="fill:#b97964"></path><path d="M226.32,185.17c-3.74-1.82-11.51-3.95-25.95-1.83-.16-.31-.31-.6-.48-.87,3.39-2.23,7.08-.51,9.37-2.34C215.18,175.36,222,178.12,226.32,185.17Z" style="isolation:isolate;opacity:0.1"></path><path d="M251.11,211c-4.34-.08-10.07-3.39-15.72-4.68A20,20,0,0,0,222.76,208a11.38,11.38,0,0,0-2.34-2.09c3.87-1.59,8.92-9,15.35-11.08,4.19,2.45,8.63,4.29,11.17,7.16C248.35,203.6,249.85,207,251.11,211Z" style="isolation:isolate;opacity:0.05"></path><path d="M253.89,228.26c-.09,3.39-.8,6.07-2.38,7.25l-.14.12h0a81.24,81.24,0,0,0-16.7.2c-5.9.83-9-.44-10.5-1.53,3.89-1.56,7-2.64,6.69-5.74a16.66,16.66,0,0,1,7.42.76c4.65,1.55,6.71-.93,11.46-1.55A9,9,0,0,1,253.89,228.26Z" style="isolation:isolate;opacity:0.08"></path><path d="M187.6,208.56s-7.77-16.32-2.6-26.09c3.26-6.17,31.55-4.63,31.55-4.63s-12.86.35-3.88,29.51C212.67,207.35,196.9,205.66,187.6,208.56Z" style="fill:#263238"></path><path d="M187.6,208.56s-7.77-16.32-2.6-26.09c3.26-6.17,31.55-4.63,31.55-4.63s-12.86.35-3.88,29.51C212.67,207.35,196.9,205.66,187.6,208.56Z" style="fill:#fff;isolation:isolate;opacity:0.9"></path><g style="opacity:0.4"><path d="M202.27,199.49c-.19-.8.33-1.26,1.53-1.22.76,0,1.52.08,2.27.13.36,1.59.73,3.19,1.09,4.79-.71-.07-1.42-.12-2.14-.16-1.09-.06-1.81-.54-2-1.3a.85.85,0,0,1,.4-1A1.58,1.58,0,0,1,202.27,199.49Zm.7.07c.12.55.59.8,1.35.84l1.56.09-.36-1.58c-.52,0-1-.07-1.57-.09C203.2,198.79,202.84,199,203,199.56Zm3.38,3c-.11-.51-.23-1-.34-1.53-.47,0-.93-.07-1.4-.09-.69,0-1,.21-.91.71s.57.77,1.26.81Z"></path><path d="M202,202.92h-.68c-.36-1.56-.73-3.13-1.09-4.69h.68C201.28,199.78,201.64,201.35,202,202.92Z"></path><path d="M199.89,202.92l-.69,0c-.31-1.37-.63-2.73-.95-4.08-.87,0-1.73.08-2.59.15,0-.19-.09-.38-.14-.57,1.09-.09,2.18-.15,3.28-.19C199.16,199.81,199.52,201.36,199.89,202.92Z"></path><path d="M195.83,203.11l-.69,0c-.31-1.34-.63-2.68-.95-4-.86.08-1.73.19-2.59.3,0-.18-.09-.37-.13-.56,1.09-.15,2.17-.28,3.27-.38C195.1,200,195.46,201.57,195.83,203.11Z"></path><path d="M191.29,199.44c0,.18-.09.36-.13.54a2.64,2.64,0,0,0-1.7-.27c-.82.14-1.1.51-1,.9.27,1.08,3-.08,3.39,1.63.17.7-.26,1.37-1.51,1.56a3.26,3.26,0,0,1-1.63-.14c0-.19.07-.37.1-.56a2.73,2.73,0,0,0,1.39.15c.81-.13,1.09-.5,1-.89-.27-1.13-3,0-3.38-1.59-.17-.68.27-1.39,1.53-1.61A3,3,0,0,1,191.29,199.44Z"></path></g><g style="opacity:0.4"><path d="M195.79,196.11a.15.15,0,0,1-.15-.14.14.14,0,0,1,.14-.16,86.13,86.13,0,0,1,12.39-.21.16.16,0,0,1,.15.16.15.15,0,0,1-.16.14,85.72,85.72,0,0,0-12.36.21Z"></path><path d="M207.39,193.27h0a70.84,70.84,0,0,0-8.81-.17.17.17,0,0,1-.16-.15.15.15,0,0,1,.15-.15,75.5,75.5,0,0,1,8.85.16.16.16,0,0,1,.14.17A.15.15,0,0,1,207.39,193.27Z"></path><path d="M184.82,195a.15.15,0,0,1-.15-.11.16.16,0,0,1,.11-.19c1.48-.37,3.05-.7,4.66-1a.17.17,0,0,1,.18.13.16.16,0,0,1-.13.17c-1.6.27-3.16.59-4.63,1Z"></path><path d="M210.64,180.1h0a61.74,61.74,0,0,0-12.78-.46.16.16,0,0,1-.17-.14.15.15,0,0,1,.14-.16,62.46,62.46,0,0,1,12.86.46.15.15,0,0,1,.13.17A.15.15,0,0,1,210.64,180.1Z"></path><path d="M186.68,181.91a.15.15,0,0,1-.14-.1.14.14,0,0,1,.09-.19,33.6,33.6,0,0,1,5.73-1.6.15.15,0,0,1,.18.13.14.14,0,0,1-.12.17,33.39,33.39,0,0,0-5.69,1.58Z"></path><path d="M191.42,190.93a.14.14,0,0,1-.15-.13.14.14,0,0,1,.13-.17,67,67,0,0,1,15.77-.24.15.15,0,0,1,.14.16.15.15,0,0,1-.17.14,66.91,66.91,0,0,0-15.7.24Z"></path><path d="M184.82,189.55a.14.14,0,0,1-.14-.09.16.16,0,0,1,.08-.2,33.26,33.26,0,0,1,7.13-1.6.15.15,0,0,1,.17.13.16.16,0,0,1-.13.17,32.29,32.29,0,0,0-7.05,1.58Z"></path><path d="M207.39,187.9h0a72.17,72.17,0,0,0-8.07-.42h0a.16.16,0,1,1,0-.31,75.74,75.74,0,0,1,8.12.43.15.15,0,0,1,.13.16A.15.15,0,0,1,207.39,187.9Z"></path><path d="M207.39,185.58h0a43.13,43.13,0,0,0-11.86-.41c-.07,0-.15,0-.16-.14a.15.15,0,0,1,.14-.16,43.3,43.3,0,0,1,11.94.42.15.15,0,0,1,.12.17A.16.16,0,0,1,207.39,185.58Z"></path><path d="M185.75,184.18a.15.15,0,0,1-.14-.1.14.14,0,0,1,.09-.19,41.13,41.13,0,0,1,4.9-1.14.15.15,0,0,1,.17.13.14.14,0,0,1-.12.17,44.69,44.69,0,0,0-4.85,1.12Z"></path><path d="M208.16,183h0a42.8,42.8,0,0,0-8.33-.81.14.14,0,0,1-.15-.15.15.15,0,0,1,.15-.15h0a42.65,42.65,0,0,1,8.39.81.15.15,0,0,1,.12.18A.15.15,0,0,1,208.16,183Z"></path></g><path d="M235.93,257.87a21.67,21.67,0,0,0-5.46.77c-5,1.43-14.88.08-21.93-1.07a21.8,21.8,0,0,1,3-13.33c4.85.31,10.12.7,12.61,1,3.8.45,10.52-.63,15.61-.41C236.36,248.48,234.14,252.87,235.93,257.87Z" style="fill:#fff;isolation:isolate;opacity:0.1"></path><path d="M238.58,289.32a34.51,34.51,0,0,1-3.19,10.62,16.51,16.51,0,0,0-1.79,5.94c-6.55,1.11-18.35,2.69-27.5,1.48a31,31,0,0,1,1.19-9.29c.79-2.52,1.58-4.73,2.29-6.79,3.22,1.37,7.95,2.24,14.58,1.07C230.09,291.3,234.9,290.25,238.58,289.32Z" style="fill:#fff;isolation:isolate;opacity:0.1"></path><path d="M252,201.26l-6.77-4.41L244,205.73s6.27,3.57,8,.26Z" style="fill:#b97964"></path><polygon points="237.2 196.6 238.79 204.58 244.03 205.73 245.2 196.85 237.2 196.6" style="fill:#b97964"></polygon><path d="M281.09,177c8,1.36,10.12,12.41,12.44,25l-15.85,2.84s-1.64-11.72-3.2-17.73C272.41,179.16,281.09,177,281.09,177Z" style="fill:#C53F3F"></path><path d="M281.09,177c8,1.36,10.12,12.41,12.44,25l-15.85,2.84s-1.64-11.72-3.2-17.73C272.41,179.16,281.09,177,281.09,177Z" style="isolation:isolate;opacity:0.30000000000000004"></path></g></svg>
