<svg width="28" height="22" viewBox="0 0 28 22" fill="none" xmlns="http://www.w3.org/2000/svg">
<path d="M0 4C0 3.07174 0.368749 2.1815 1.02513 1.52513C1.6815 0.868749 2.57174 0.5 3.5 0.5H24.5C25.4283 0.5 26.3185 0.868749 26.9749 1.52513C27.6313 2.1815 28 3.07174 28 4V18C28 18.9283 27.6313 19.8185 26.9749 20.4749C26.3185 21.1313 25.4283 21.5 24.5 21.5H3.5C2.57174 21.5 1.6815 21.1313 1.02513 20.4749C0.368749 19.8185 0 18.9283 0 18V4ZM3.5 2.25C3.03587 2.25 2.59075 2.43437 2.26256 2.76256C1.93437 3.09075 1.75 3.53587 1.75 4V5.75H26.25V4C26.25 3.53587 26.0656 3.09075 25.7374 2.76256C25.4092 2.43437 24.9641 2.25 24.5 2.25H3.5ZM26.25 9.25H1.75V18C1.75 18.4641 1.93437 18.9092 2.26256 19.2374C2.59075 19.5656 3.03587 19.75 3.5 19.75H24.5C24.9641 19.75 25.4092 19.5656 25.7374 19.2374C26.0656 18.9092 26.25 18.4641 26.25 18V9.25Z" fill="#7D7D7D"/>
<path d="M3.5 14.5C3.5 14.0359 3.68437 13.5908 4.01256 13.2626C4.34075 12.9344 4.78587 12.75 5.25 12.75H7C7.46413 12.75 7.90925 12.9344 8.23744 13.2626C8.56563 13.5908 8.75 14.0359 8.75 14.5V16.25C8.75 16.7141 8.56563 17.1592 8.23744 17.4874C7.90925 17.8156 7.46413 18 7 18H5.25C4.78587 18 4.34075 17.8156 4.01256 17.4874C3.68437 17.1592 3.5 16.7141 3.5 16.25V14.5Z" fill="#7D7D7D"/>
</svg>
