<svg width="24" height="28" viewBox="0 0 24 28" fill="none" xmlns="http://www.w3.org/2000/svg">
<path d="M12.0006 0C5.84453 0 0.800049 4.67824 0.800049 10.3874C0.800049 12.5994 1.55997 14.6549 2.84573 16.345L10.6339 27.1054C11.7245 28.4304 12.4494 28.1789 13.3564 27.0354L21.9468 15.2012C22.1204 14.9092 22.2564 14.5984 22.3752 14.2811C22.9052 13.0766 23.2 11.7628 23.2 10.3874C23.2 4.67824 18.157 0 12.0006 0ZM9.81997 6.00824C10.5855 6.00824 11.3146 6.40528 11.9701 6.76396C12.6253 6.40528 13.3544 6.00824 14.1199 6.00796C16.4761 6.00796 18.4 7.79716 18.4 9.98872V9.9974C18.3709 11.851 16.7659 13.5682 15.2688 14.9226C13.7716 16.2772 12.2862 17.2404 12.2862 17.2404C12.1757 17.311 12.0472 17.348 11.9162 17.3472C11.7851 17.3463 11.6571 17.3076 11.5476 17.2357C11.5476 17.2357 10.1562 16.3103 8.72069 14.9755C7.28513 13.641 5.73701 11.9151 5.54325 10.0458C5.54121 10.0269 5.54018 10.0078 5.54017 9.98872C5.54017 7.79744 7.46377 6.00824 9.81997 6.00824Z" fill="#7D7D7D"/>
</svg>
