<svg width="24" height="26" viewBox="0 0 24 26" fill="none" xmlns="http://www.w3.org/2000/svg">
<path d="M14.4256 0.75C14.6108 0.750006 14.7913 0.808807 14.941 0.917934C15.0907 1.02706 15.2019 1.18089 15.2586 1.35725L16.2211 4.348C16.6253 4.54575 17.0121 4.768 17.3813 5.01825L20.4543 4.35675C20.6355 4.31807 20.8243 4.33789 20.9935 4.41337C21.1627 4.48885 21.3036 4.61608 21.3958 4.77675L23.8213 8.975C23.9139 9.13557 23.9532 9.32141 23.9334 9.50572C23.9135 9.69003 23.8357 9.86328 23.7111 10.0005L21.6023 12.328C21.633 12.7743 21.633 13.2222 21.6023 13.6685L23.7111 15.9995C23.8357 16.1367 23.9135 16.31 23.9334 16.4943C23.9532 16.6786 23.9139 16.8644 23.8213 17.025L21.3958 21.225C21.3033 21.3853 21.1623 21.5122 20.9931 21.5874C20.824 21.6625 20.6353 21.6821 20.4543 21.6432L17.3813 20.9818C17.0138 21.2302 16.6253 21.4543 16.2228 21.652L15.2586 24.6427C15.2019 24.8191 15.0907 24.9729 14.941 25.0821C14.7913 25.1912 14.6108 25.25 14.4256 25.25H9.57457C9.38932 25.25 9.20885 25.1912 9.05915 25.0821C8.90945 24.9729 8.79825 24.8191 8.74157 24.6427L7.78082 21.6537C7.37765 21.4566 6.98878 21.2315 6.61707 20.98L3.54582 21.6432C3.36463 21.6819 3.17584 21.6621 3.00664 21.5866C2.83745 21.5112 2.69657 21.3839 2.60432 21.2233L0.178817 17.025C0.0861978 16.8644 0.046967 16.6786 0.0667818 16.4943C0.0865965 16.31 0.164433 16.1367 0.289067 15.9995L2.39782 13.6685C2.36727 13.2234 2.36727 12.7766 2.39782 12.3315L0.289067 10.0005C0.164433 9.86328 0.0865965 9.69003 0.0667818 9.50572C0.046967 9.32141 0.0861978 9.13557 0.178817 8.975L2.60432 4.775C2.69683 4.61465 2.83781 4.48778 3.00699 4.41263C3.17617 4.33747 3.36482 4.31791 3.54582 4.35675L6.61707 5.02C6.98807 4.76975 7.37657 4.544 7.78082 4.34625L8.74332 1.35725C8.79982 1.18145 8.91049 1.02804 9.05949 0.918962C9.20848 0.809887 9.38816 0.750745 9.57282 0.75H14.4238H14.4256ZM13.7851 2.5H10.2151L9.22107 5.59225L8.55082 5.9195C8.22132 6.08074 7.90325 6.26434 7.59882 6.469L6.97932 6.889L3.80132 6.203L2.01632 9.297L4.19507 11.7085L4.14257 12.4505C4.11742 12.8164 4.11742 13.1836 4.14257 13.5495L4.19507 14.2915L2.01282 16.703L3.79957 19.797L6.97757 19.1128L7.59707 19.531C7.9015 19.7357 8.21957 19.9193 8.54907 20.0805L9.21932 20.4077L10.2151 23.5H13.7886L14.7861 20.406L15.4546 20.0805C15.7837 19.9196 16.1012 19.736 16.4048 19.531L17.0226 19.1128L20.2023 19.797L21.9873 16.703L19.8068 14.2915L19.8593 13.5495C19.8845 13.183 19.8845 12.8152 19.8593 12.4487L19.8068 11.7067L21.9891 9.297L20.2023 6.203L17.0226 6.8855L16.4048 6.469C16.1013 6.26393 15.7837 6.08031 15.4546 5.9195L14.7861 5.594L13.7868 2.5H13.7851ZM12.0001 7.75C13.3925 7.75 14.7278 8.30312 15.7124 9.28769C16.6969 10.2723 17.2501 11.6076 17.2501 13C17.2501 14.3924 16.6969 15.7277 15.7124 16.7123C14.7278 17.6969 13.3925 18.25 12.0001 18.25C10.6077 18.25 9.27232 17.6969 8.28776 16.7123C7.30319 15.7277 6.75007 14.3924 6.75007 13C6.75007 11.6076 7.30319 10.2723 8.28776 9.28769C9.27232 8.30312 10.6077 7.75 12.0001 7.75ZM12.0001 9.5C11.0718 9.5 10.1816 9.86875 9.52519 10.5251C8.86882 11.1815 8.50007 12.0717 8.50007 13C8.50007 13.9283 8.86882 14.8185 9.52519 15.4749C10.1816 16.1313 11.0718 16.5 12.0001 16.5C12.9283 16.5 13.8186 16.1313 14.4749 15.4749C15.1313 14.8185 15.5001 13.9283 15.5001 13C15.5001 12.0717 15.1313 11.1815 14.4749 10.5251C13.8186 9.86875 12.9283 9.5 12.0001 9.5Z" fill="#7D7D7D"/>
</svg>
