<svg width="26" height="18" viewBox="0 0 26 18" fill="none" xmlns="http://www.w3.org/2000/svg">
<path d="M23.8062 6.21094C24.1518 6.14041 24.4623 5.9528 24.6855 5.6798C24.9087 5.40679 25.0308 5.06512 25.0312 4.7125V2C25.0312 1.59389 24.8699 1.20441 24.5828 0.917243C24.2956 0.630078 23.9061 0.46875 23.5 0.46875H2.5C2.09389 0.46875 1.70441 0.630078 1.41724 0.917243C1.13008 1.20441 0.96875 1.59389 0.96875 2V4.7125C0.969182 5.06512 1.0913 5.40679 1.31449 5.6798C1.53768 5.9528 1.84825 6.14041 2.19375 6.21094C2.83898 6.33934 3.41972 6.68747 3.83705 7.19603C4.25439 7.7046 4.48248 8.34212 4.48248 9C4.48248 9.65788 4.25439 10.2954 3.83705 10.804C3.41972 11.3125 2.83898 11.6607 2.19375 11.7891C1.84825 11.8596 1.53768 12.0472 1.31449 12.3202C1.0913 12.5932 0.969182 12.9349 0.96875 13.2875V16C0.96875 16.4061 1.13008 16.7956 1.41724 17.0828C1.70441 17.3699 2.09389 17.5312 2.5 17.5312H23.5C23.9061 17.5312 24.2956 17.3699 24.5828 17.0828C24.8699 16.7956 25.0312 16.4061 25.0312 16V13.2875C25.0308 12.9349 24.9087 12.5932 24.6855 12.3202C24.4623 12.0472 24.1518 11.8596 23.8062 11.7891C23.161 11.6607 22.5803 11.3125 22.1629 10.804C21.7456 10.2954 21.5175 9.65788 21.5175 9C21.5175 8.34212 21.7456 7.7046 22.1629 7.19603C22.5803 6.68747 23.161 6.33934 23.8062 6.21094ZM2.28125 16V13.2875C2.28022 13.2363 2.29716 13.1864 2.32914 13.1464C2.36112 13.1065 2.4061 13.079 2.45625 13.0687C3.39115 12.8738 4.23039 12.3629 4.83284 11.6219C5.43528 10.8809 5.76416 9.955 5.76416 9C5.76416 8.045 5.43528 7.11913 4.83284 6.37812C4.23039 5.63712 3.39115 5.12618 2.45625 4.93125C2.4061 4.92102 2.36112 4.89353 2.32914 4.85356C2.29716 4.81359 2.28022 4.76368 2.28125 4.7125V2C2.28125 1.94198 2.3043 1.88634 2.34532 1.84532C2.38634 1.8043 2.44198 1.78125 2.5 1.78125H8.84375V16.2188H2.5C2.44198 16.2188 2.38634 16.1957 2.34532 16.1547C2.3043 16.1137 2.28125 16.058 2.28125 16ZM23.5437 13.0687C23.5939 13.079 23.6389 13.1065 23.6709 13.1464C23.7028 13.1864 23.7198 13.2363 23.7188 13.2875V16C23.7188 16.058 23.6957 16.1137 23.6547 16.1547C23.6137 16.1957 23.558 16.2188 23.5 16.2188H10.1562V1.78125H23.5C23.558 1.78125 23.6137 1.8043 23.6547 1.84532C23.6957 1.88634 23.7188 1.94198 23.7188 2V4.7125C23.7198 4.76368 23.7028 4.81359 23.6709 4.85356C23.6389 4.89353 23.5939 4.92102 23.5437 4.93125C22.6089 5.12618 21.7696 5.63712 21.1672 6.37812C20.5647 7.11913 20.2358 8.045 20.2358 9C20.2358 9.955 20.5647 10.8809 21.1672 11.6219C21.7696 12.3629 22.6089 12.8738 23.5437 13.0687Z" fill="#7D7D7D"/>
</svg>
